<?xml version="1.0" encoding="utf-8"?>
<!-- Generator: Adobe Illustrator 25.2.0, SVG Export Plug-In . SVG Version: 6.00 Build 0)  -->
<!DOCTYPE svg PUBLIC "-//W3C//DTD SVG 1.1//EN" "http://www.w3.org/Graphics/SVG/1.1/DTD/svg11.dtd" [
	<!ENTITY ns_flows "http://ns.adobe.com/Flows/1.0/">
	<!ENTITY ns_extend "http://ns.adobe.com/Extensibility/1.0/">
	<!ENTITY ns_ai "http://ns.adobe.com/AdobeIllustrator/10.0/">
	<!ENTITY ns_graphs "http://ns.adobe.com/Graphs/1.0/">
	<!ENTITY ns_vars "http://ns.adobe.com/Variables/1.0/">
	<!ENTITY ns_imrep "http://ns.adobe.com/ImageReplacement/1.0/">
	<!ENTITY ns_sfw "http://ns.adobe.com/SaveForWeb/1.0/">
	<!ENTITY ns_custom "http://ns.adobe.com/GenericCustomNamespace/1.0/">
	<!ENTITY ns_adobe_xpath "http://ns.adobe.com/XPath/1.0/">
]>
<svg version="1.1" xmlns:x="&ns_extend;" xmlns:i="&ns_ai;" xmlns:graph="&ns_graphs;"
	 xmlns="http://www.w3.org/2000/svg" xmlns:xlink="http://www.w3.org/1999/xlink" xmlns:a="http://ns.adobe.com/AdobeSVGViewerExtensions/3.0/"
	 x="0px" y="0px" width="1000px" height="525px" viewBox="0 0 1000 525" enable-background="new 0 0 1000 525" xml:space="preserve"
	>
<metadata><?xpacket begin="﻿" id="W5M0MpCehiHzreSzNTczkc9d"?>
<x:xmpmeta xmlns:x="adobe:ns:meta/" x:xmptk="Adobe XMP Core 6.0-c004 79.164570, 2020/11/18-15:51:46        ">
   <rdf:RDF xmlns:rdf="http://www.w3.org/1999/02/22-rdf-syntax-ns#">
      <rdf:Description rdf:about=""
            xmlns:xmp="http://ns.adobe.com/xap/1.0/"
            xmlns:xmpGImg="http://ns.adobe.com/xap/1.0/g/img/"
            xmlns:xmpTPg="http://ns.adobe.com/xap/1.0/t/pg/"
            xmlns:stDim="http://ns.adobe.com/xap/1.0/sType/Dimensions#"
            xmlns:stFnt="http://ns.adobe.com/xap/1.0/sType/Font#"
            xmlns:xmpG="http://ns.adobe.com/xap/1.0/g/"
            xmlns:illustrator="http://ns.adobe.com/illustrator/1.0/"
            xmlns:dc="http://purl.org/dc/elements/1.1/"
            xmlns:xmpMM="http://ns.adobe.com/xap/1.0/mm/"
            xmlns:stRef="http://ns.adobe.com/xap/1.0/sType/ResourceRef#"
            xmlns:stEvt="http://ns.adobe.com/xap/1.0/sType/ResourceEvent#">
         <xmp:CreatorTool>Adobe Illustrator 25.2 (Macintosh)</xmp:CreatorTool>
         <xmp:CreateDate>2021-02-22T18:25:32-05:00</xmp:CreateDate>
         <xmp:Thumbnails>
            <rdf:Alt>
               <rdf:li rdf:parseType="Resource">
                  <xmpGImg:width>128</xmpGImg:width>
                  <xmpGImg:height>256</xmpGImg:height>
                  <xmpGImg:format>JPEG</xmpGImg:format>
                  <xmpGImg:image>/9j/4AAQSkZJRgABAgEASABIAAD/7QAsUGhvdG9zaG9wIDMuMAA4QklNA+0AAAAAABAASAAAAAEA&#xA;AQBIAAAAAQAB/+4ADkFkb2JlAGTAAAAAAf/bAIQABgQEBAUEBgUFBgkGBQYJCwgGBggLDAoKCwoK&#xA;DBAMDAwMDAwQDA4PEA8ODBMTFBQTExwbGxscHx8fHx8fHx8fHwEHBwcNDA0YEBAYGhURFRofHx8f&#xA;Hx8fHx8fHx8fHx8fHx8fHx8fHx8fHx8fHx8fHx8fHx8fHx8fHx8fHx8fHx8f/8AAEQgBAACAAwER&#xA;AAIRAQMRAf/EAaIAAAAHAQEBAQEAAAAAAAAAAAQFAwIGAQAHCAkKCwEAAgIDAQEBAQEAAAAAAAAA&#xA;AQACAwQFBgcICQoLEAACAQMDAgQCBgcDBAIGAnMBAgMRBAAFIRIxQVEGE2EicYEUMpGhBxWxQiPB&#xA;UtHhMxZi8CRygvElQzRTkqKyY3PCNUQnk6OzNhdUZHTD0uIIJoMJChgZhJRFRqS0VtNVKBry4/PE&#xA;1OT0ZXWFlaW1xdXl9WZ2hpamtsbW5vY3R1dnd4eXp7fH1+f3OEhYaHiImKi4yNjo+Ck5SVlpeYmZ&#xA;qbnJ2en5KjpKWmp6ipqqusra6voRAAICAQIDBQUEBQYECAMDbQEAAhEDBCESMUEFURNhIgZxgZEy&#xA;obHwFMHR4SNCFVJicvEzJDRDghaSUyWiY7LCB3PSNeJEgxdUkwgJChgZJjZFGidkdFU38qOzwygp&#xA;0+PzhJSktMTU5PRldYWVpbXF1eX1RlZmdoaWprbG1ub2R1dnd4eXp7fH1+f3OEhYaHiImKi4yNjo&#xA;+DlJWWl5iZmpucnZ6fkqOkpaanqKmqq6ytrq+v/aAAwDAQACEQMRAD8A9EReRNCijWONrxY1/YF5&#xA;c8aeBX1ONPoykaePn8y5x7QyE2eH/Sx/UrL5P0pQo9a9IVuYBvbo7/8AIzph8EefzLA62fdH/Sx/&#xA;UpQ+R9FhVUjkvFRdwgu7hUrtvwVwo6dhgGCI7/mWUtfkPPh/0o/Uq2/k/SLeWKSGS8T0WVkj+uXJ&#xA;SqGu6GTiQab1G+EYYjv+ZYy1s5Ag8O/9GP6k7y1xHYq7FXYq7FXYq7FXYq7FXYq7FXYq7FXYq7FX&#xA;Yq7FXYq7FXYq7FXYq7FXYq7FXYq7FXYq7FXYq7FXYq7FXYq7FXYq7FXYq7FXYq7FXYq7FXYq7FXY&#xA;q7FXYq7FXYq7FXYq7FXYq7FXYq7FXYq7FXYq7FXYq7FXYq7FXYq7FXYq7FXYq7FXYq7FXYq7FXYq&#xA;7FXYq7FXYq7FXYq7FXYq7FXYq7FXYq7FXYq7FXYq7FXYq7FXYq7FXYq7FXYq7FXYq7FXYqpRXdpL&#xA;I0UU0ckiV5orAsKbGoBwAhkYSAshVwsXYq7FXYq7FXYq7FXYq7FXYq7FVspkEbmJQ0oB4KxKqWps&#xA;CwDECvehxKRV7pLP5gvbWJ1vrBre4Pw2/psbiN2JotCoRiT/AC8a5UchHMOVHTRkfTKx16KVtrur&#xA;SW3oJambUZCDEzo0UQR0SQO43IC+pxIHhvQkDAMhrluzlp4A3dR+Z6j9H4pNLu8lstLNxclDOiKJ&#xA;GUERiRiFrQktwDGp70yZlQsuNCAnOhy+3+1JNClgi1CDY8rlGjiWRDEwQ8pw0YLyck4gJ7AKK7ZV&#xA;jO7l6gExPl8fLfYb9fmydmVVLMQqqKknYADMh14DF9JvdRv/ADEs31xltvTeQ2QoVMR2QMN+Ljkr&#xA;e4p22OPCRMubsc2OMMVVvfPz/UynMh1zsVdirsVdirsVdirsVdiqE1B9UAjWwjiZmrzeYmi06bLQ&#xA;0Pj+G9RGV9G3GIfxX8EqvzrzWkiXwCw+m/rvZqhULx6/vnLkDeoCg+B8a5cVb/Y5GPw+IcPPpf7B&#xA;+lG6UySXd5KsHpAlFDKrKjcC1T8SpVw5YNt0pkocy1ZhUQLv8fd+1F6hJwtWIVWdmRIw+683cKhP&#xA;yYg5KXJqxiygtEeKb9/b1+rfV7eKItsxADSLy2H+65UPzJyMN+TdnBGx52f1feCitVsFvrT0GAYB&#xA;lf02LBH4GvFuO9P1HffpkpxsNeHJwStKpA9uzQzu7tbQ+tELcJziqxokTvxrRQqkPXntsNxlfJyB&#xA;6tx1Nb9ff+zknFhFcxWqJdPznqxZuXLYsSBy4pWgNPsjLIg1u4uQgy25IjJMHYq7FXYq7FXYq7FX&#xA;Yq7FUPqKGTT7pFIDPFIoJIAqVI6nbIy5FniNSB81PSJFlsvUXlxeWdgGBVqGZzuCARjA7MswqVeQ&#xA;+4KevTiHTJDwd3dkjjWIVkDM4AZB/Mv2h8sGQ0E6eNzW+XDKdIiaa3e1kZpCYJBRlBkbjUdvhpgx&#xA;fSy1VcZo3y+5beaLNd3kk0t/MluwRUtoTwUBdyHBLK/I1r8PTbpiYWeawziMaERfeUDpWnWj6hOL&#xA;VWjsraVQ61fi8sYBBodq8/iYjrxTtkIRF7cvx+Pk3ZsshEcX1EfZ+PvLIsvcF2KuxV2KuxV2KuxV&#xA;2KuxVa6M1KOU+VP4g4pBU5bX1YniklcpIpRh8I2YUPRcBDITo2AoWOlizjdEuZpPUf1HaQox5FQp&#xA;/ZHWlfnkYwrqzyZeI7gIn0n/AN/P9yf805Kmux3OET/7+c/Qn/NONLY7nelJ/v5/uT/mnGlsdyAs&#xA;NBhspRJFczuyxiEeoUb4FpxBPAE0ptXIRx11bsmoMxRA53+N0yVSooWLHxNP4AZY0FvFDsVdirsV&#xA;dirsVdirsVdirsVdirsVdirsVdirsVdirsVdirsVdirsVdirsVdirsVdirsVdirsVdirsVdirsVd&#xA;irsVdirsVdirsVdirsVdirsVdirsVdirsVdirsVdirsVdirsVdirsVdiqT63rkti37hY3SFWe7Z+&#xA;XFeIDLHyXZXcVp1pttQ5VPJXJysGnE+fXl+v4KqeZdHkRnimaRVALFYpDSp4ip40FTtvh8WLE6XI&#xA;OY+0I20u47qL1EBUglWRqEg9f2Sy9CDscmDbVOBiaVsLBDTalZQzGKWTgygF2YMEWtSOT04LWnc5&#xA;EyAbI4pEWF9teWtyGNvIsgU0JX33B+RHQ9DhEgeTGUDHmFbCxdirsVdirsVdirsVdirsVdirHWtX&#xA;mSKKYuqSXElvJMvBY2AkclmBLtzfiUDDjQtt2yirc4TqyO4H7B9nXry3W6n5dsYDbPYIYp/rCSFF&#xA;5OzcDVmXkw40WtTUbH+bjRljA5JxamRvi3Ffj8fotHaSEivZkWEwLLEjqCnph3Vm9R+Pj8abnc7b&#xA;7HJw5tObeI3uj/Z+lNsscZjWryW13rUcKxyJNbCk0tCvwMCyMhDKdmVhUjjQtvlEyDJz8IMcd7Uf&#xA;x+OvJEeVfQWC59Bi8KP6fqMoQqYS0XAKOihUVhX+Y13rhxVuw1d2L5/r3/Z8E9BBFRuD0OXOG7FX&#xA;Yq7FXYq7FXYq7FXYqsnmjgiaWQ0RBU0BJPgABuSegAwE0mMSTQY5LPdKjJ6Stp0kk0tw3I1YESTF&#xA;FoACaLRuLca9zuMpJPwc8Rj3+qhX2D8dfsRMNrNJqCWt1MTcRwqTMuzmNFjB4Md19SRn5EfFsMIG&#xA;9FrlMCPFEbX+v7hXkqSNcWF6kkpaS1jVo4SWqSkhVjVmqzSIU6ftL0qwIJ3BYipxoc/x9h+w+SaX&#xA;FwsNrJcfbWNGk27hRXbLCaFuPGNkBitq9/6zpcMC8TsU9IgNN1R25SMp3kjDKvMbKfBcxxfV2MxG&#xA;tuv2fLyPOuvvUNM9O9na0jlYWd7JIZ5InmRi7ozniGYqyvwNSV9qk1oI7muhZ5bgOIj1RA7vx+O5&#xA;l9jaJZ2sdsjs6RghS9K0qSB8IUUXoAB0zJiKFOsyT4pWr4WDsVdirsVdirsVdirsVS/WNLmv1jEV&#xA;wIDGTUMpdTWn7IZN9qV8CfHIThbfhyiF2Ldf6bPdWywRzRwqlQtIyQFaNo6UDr+y+2Mo2KXHlETZ&#xA;F/HzvuUbPSdThvPrVxfrcy8TGWMHA8OoX4X40Db/AGa++CMCDZLKeaBjwiND3/sRV/aXd1Zy26Tp&#xA;E0q8fU9Mtxr1IBfr4ZKQJFNeOcYyBq680KdJ1L6gLNb5FTk3MmEkGJq/ut5KhRXsa06UyPAaq2zx&#xA;ocXFw/b17+Sle+XDdQQxO8DiKJIqzQGQ0jI3T94vEtuG8cEsVsoarhJO+56H9ipY6LeQTxSz3Uc3&#xA;ooqxqsJT4wrL6jH1GZjxcgCvEeGMYEHmjJniQQARfn9nL9qbIHA+MgnxAp/E5a4xbxQ7FXYq7FXY&#xA;q7FXYq7FXYq7FXYq7FXYq7FXYq7FXYq7FXYq7FXYq7FXYq7FXYq7FXYq7FXYq7FXYq7FXYq7FXYq&#xA;7FXYq7FXYq7FXYq7FXYq7FXYq7FXYq7FXYq7FXYq7FXYq7FXYq7FXYq7FXYq7FXYqhl1Owa9axEy&#xA;/W0pWE7HdeW1evw77ZHiF11bPClw8Velel7ZvcNbJPG1wgq0IdS4A8VrXvh4hdMTCQF1srYWLsVd&#xA;irsVdirsVdirsVdiq2WWOKN5ZGCRxgs7saAKBUkn2xJSASaDFtcS5uoJNZtTVUUJboA0c6rG55SK&#xA;x3Uluo47qN+u2Pks+oOx05ET4cvj1G/T8dU0tW1GGxWUzyXM0camSCdY1LMwrwBRVKv0616/Tlgs&#xA;BxpiBlVUPK/xSN06/S9idgvB4pDFKlQwDrQmjDqKEEZKMrasuPhPvRWSa2N3MNncC+1GFx6ouFSG&#xA;cySRUHppCODKyUBcnfo3vlBANlz4ylHhieVeR6kq2i2OnJqcrRv60sEKlCztJwaaSYyMnMs3xN3J&#xA;r9BwwiLY58kjAXsCfuApPsucJ2KuxV2KuxV2KuxV2KuxVB6wobTLnkOUYQmZK05RDeRa9uSVGRny&#xA;bcH1j8b9Eo+r2tzq6tz9QI4SsTMjVmiMqymhA+zyFBseVaCmVUDJyuKUYfjoar8dyvLZ2un3nNnk&#xA;Nv6EszxEgKXQgsygcQDxdqjv9GSIALATM4+dgI3S2Be7JoGeUSBFBACemqIQTsyn09mH4GoEodWn&#xA;N0936Ve6vooKoP3txxrHbpu7V2GwrRSduR2GEyphDGT7u9IL3S5pre2srdlf6pGswWgZXkgFV+1U&#xA;qrShdu9G8N6ZQsADo5sMoBMj/Ft8/wBn6Ez036tJfzTxv6hEESI7bEqeTFlXoEbYbAbqR2yyNW4+&#xA;WxEA95/H4700yxx3Yq7FXYq7FXYq7FXYq7FUv1e21K4WGO0MYjDhp/UJBKgg0X4XHj1707VBhME8&#xA;m/DKEbMr8kONLvYNShubSOEQqgjkEkj8iGdmkf7BrISQeRPjXrXI8BBsM/FiYESJv3fLryVNZs9U&#xA;vIUit/Rj+3zd2ao5Rsg4/AR+2a1/DqDOJPJjgnCJs3+Pip29lrUF3LJGLZYW9T0l5yGit8SKRxHR&#xA;yWrXapAHSgEZAspZMZiAbv4fjl+tDS+X7l7ExmKCW4kYmUyuWWhr0/d05nYM/Hk3ttQHGaZjUgSu&#xA;zX48+XcL2TPToL23tVWaOE3B3mkRmo7DYHdP5e3boNsnEEBoyyjI7XX480v1DStakvRNZm3jjBDB&#xA;XdwQWr6hBRAy8jxPwsO9QeRyEoSvZvx5sYjUr/HLr+j7k3sVvVtVW8KtcAsGZDUFeR41PFN+NK0U&#xA;CuWxut3FycN+nkr4WDsVdirsVdirsVdirsVdirsVdirsVdirsVdirsVdirsVdirsVdirsVdirsVd&#xA;irsVdirsVdirsVdirsVdirsVdirsVdirsVdirsVdirsVdirsVdirsVdirsVdirsVdirsVdirsVdi&#xA;rsVdirsVdirsVdirsVdirsVdirsVdirsVdirsVdirsVdiqC1XU1sYQRH60zBjHFUKCEFTVj07Dxq&#xA;chOVN2HFxnuCVaLrszGc37ytGgVRMImaLmC3qMJI41T06cSCWO3U9crhk73Iz6cbcNfPfy2J5/im&#xA;RKysoZSCpFQRuCDl7goe61C0tmVJXPqP9mJFaSQ9dwiBmpt1pkTIBnDHKXJCfp+2M3FYZ2iVhG8n&#xA;oyhg7KXA9MrzI4jcgdx70j4gbfy5rmL94+/ki7XUbO5PGKT95Qn03DI9AQCeDhWpU0rTJCQLXPFK&#xA;PNEZJrdirsVdirsVdirsVdirsVdirE9Y1Jp9UWK0HrXLJJHbxod1RWBdzuBWSRAF8AtehzGnKzs7&#xA;LBiqFy2HX8eQ++lCy9eymuFaZ/QMiLaxQAq9UhCtAI3ClKj06gstT9nc4I7M8lSA23637+d/Pv8A&#xA;NkmiKwtGPFI4TIRBFE3JFVQEIU0X4S6sw9jl8OTgZ/q80nudS53d1FDGJhPLE0Tkqq0T01ILDk/7&#xA;wMQnw969GBNZluXKjiqIJNUD+n7uv7EFp2laxeT3N1FcejLDcvDORI3KVlVVlYS8WATkKqnCinsK&#xA;bwjCRs+bdlzY4gRIsEWNuXdt395vdHeubK7jguJ3ka2lX6uBXgKRJ6qnxLLcMYwfCg8DO6NFp4eK&#xA;JIHMb/M1927JUdXUOhDKwBVgagg9CDl7gEU3ih2KuxV2KuxV2KuxV2KpdrNpqV3GlvayJFA5/wBJ&#xA;kLEScajZBxdTUVrX9VchME7BvwThE3Lc9F8Nk9nC5tLeJrgqBzkkYFyoood+DNQfLbsMRGuSJT4j&#xA;6ia937UouPLmpXnqTXckf1gsHVUkf0iSrIwKcAKFOK/EG6b1BKms4yebkx1MI7R5e7f7/f3fpVoN&#xA;J1y3FwsMsarcR/F+9csJjxDOpZGptyIJqa0rWmEQkGMs2OVWDse7p8/c1pej6tbXdvLMsDRwxmMq&#xA;sz9e0vH0h8Rq1RUChoPs4whIFcueEokC9/L7Ofu/BTwesBQRoOpoGPU7/wAuWuJskeu6Trd9crLa&#xA;m3iWNOK8ncFmNQGbinWMMxSh2Y1yrJCROzl6fNjgKlf4+PXr5JtpdvPbWMcExBaOqrRi4CVPBeRC&#xA;k8VoK0yyIoU42WQlIkP/2Q==</xmpGImg:image>
               </rdf:li>
            </rdf:Alt>
         </xmp:Thumbnails>
         <xmp:MetadataDate>2021-02-22T18:25:32-05:00</xmp:MetadataDate>
         <xmp:ModifyDate>2021-02-22T18:25:32-05:00</xmp:ModifyDate>
         <xmpTPg:MaxPageSize rdf:parseType="Resource">
            <stDim:w>1000.000000</stDim:w>
            <stDim:h>425.000000</stDim:h>
            <stDim:unit>Pixels</stDim:unit>
         </xmpTPg:MaxPageSize>
         <xmpTPg:NPages>1</xmpTPg:NPages>
         <xmpTPg:HasVisibleTransparency>False</xmpTPg:HasVisibleTransparency>
         <xmpTPg:HasVisibleOverprint>False</xmpTPg:HasVisibleOverprint>
         <xmpTPg:Fonts>
            <rdf:Bag>
               <rdf:li rdf:parseType="Resource">
                  <stFnt:fontName>InterV</stFnt:fontName>
                  <stFnt:fontFamily>Inter V</stFnt:fontFamily>
                  <stFnt:fontFace>Regular</stFnt:fontFace>
                  <stFnt:fontType>TrueType</stFnt:fontType>
                  <stFnt:versionString>Version 3.013;git-d82f67bfa</stFnt:versionString>
                  <stFnt:composite>False</stFnt:composite>
                  <stFnt:fontFileName>Inter-V.otf</stFnt:fontFileName>
               </rdf:li>
            </rdf:Bag>
         </xmpTPg:Fonts>
         <xmpTPg:PlateNames>
            <rdf:Seq>
               <rdf:li>Cyan</rdf:li>
               <rdf:li>Magenta</rdf:li>
               <rdf:li>Yellow</rdf:li>
               <rdf:li>Black</rdf:li>
            </rdf:Seq>
         </xmpTPg:PlateNames>
         <xmpTPg:SwatchGroups>
            <rdf:Seq>
               <rdf:li rdf:parseType="Resource">
                  <xmpG:groupName>Default Swatch Group</xmpG:groupName>
                  <xmpG:groupType>0</xmpG:groupType>
               </rdf:li>
            </rdf:Seq>
         </xmpTPg:SwatchGroups>
         <illustrator:CreatorSubTool>Adobe Illustrator</illustrator:CreatorSubTool>
         <dc:format>image/svg+xml</dc:format>
         <xmpMM:RenditionClass>default</xmpMM:RenditionClass>
         <xmpMM:DerivedFrom rdf:parseType="Resource">
            <stRef:renditionClass>default</stRef:renditionClass>
         </xmpMM:DerivedFrom>
         <xmpMM:DocumentID>xmp.did:90a217a8-4107-4e5f-8466-3a68a62dcea3</xmpMM:DocumentID>
         <xmpMM:InstanceID>xmp.iid:90a217a8-4107-4e5f-8466-3a68a62dcea3</xmpMM:InstanceID>
         <xmpMM:OriginalDocumentID>xmp.did:90a217a8-4107-4e5f-8466-3a68a62dcea3</xmpMM:OriginalDocumentID>
         <xmpMM:History>
            <rdf:Seq>
               <rdf:li rdf:parseType="Resource">
                  <stEvt:action>saved</stEvt:action>
                  <stEvt:instanceID>xmp.iid:90a217a8-4107-4e5f-8466-3a68a62dcea3</stEvt:instanceID>
                  <stEvt:when>2021-02-22T18:25:32-05:00</stEvt:when>
                  <stEvt:softwareAgent>Adobe Illustrator 25.2 (Macintosh)</stEvt:softwareAgent>
                  <stEvt:changed>/</stEvt:changed>
               </rdf:li>
            </rdf:Seq>
         </xmpMM:History>
      </rdf:Description>
   </rdf:RDF>
</x:xmpmeta>
                                                                                                    
                                                                                                    
                                                                                                    
                                                                                                    
                                                                                                    
                                                                                                    
                                                                                                    
                                                                                                    
                                                                                                    
                                                                                                    
                                                                                                    
                                                                                                    
                                                                                                    
                                                                                                    
                                                                                                    
                                                                                                    
                                                                                                    
                                                                                                    
                                                                                                    
                                                                                                    
                           
<?xpacket end="w"?>
	</metadata>
<g id="FILL-BACKGROUND">
	<rect fill="#FFFFFF" width="1000" height="525"/>
</g>
<g id="N-TEXT">
</g>
<g id="_x32_D_x24_AG-DIAGRAM">
	<g id="POLYLINE_252_">
		<g>
			<g>
				
					<line fill="none" stroke="#E74C3C" stroke-width="3.25" stroke-linecap="round" stroke-linejoin="round" x1="41.735" y1="460.642" x2="43.735" y2="460.642"/>
				
					<line fill="none" stroke="#E74C3C" stroke-width="3.25" stroke-linecap="round" stroke-linejoin="round" stroke-dasharray="3.9931,6.988" x1="50.723" y1="460.642" x2="958.66" y2="460.642"/>
				
					<line fill="none" stroke="#E74C3C" stroke-width="3.25" stroke-linecap="round" stroke-linejoin="round" x1="962.154" y1="460.642" x2="964.154" y2="460.642"/>
			</g>
		</g>
	</g>
</g>
<g id="_x32_D_x24_AG-SPORTS">
	<g id="POLYLINE_177_">
		
			<path fill="none" stroke="#E74C3C" stroke-width="2.75" stroke-linecap="round" stroke-linejoin="round" stroke-miterlimit="10" d="
			M206.657,230.977l0.658,1.238c0.378,0.733,0.711,1.504,0.888,2.312c0.17,0.747,0.192,1.526,0.18,2.29l-0.098,2.873
			c-0.028,1.585,0.097,3.205,0.662,4.698c0.534,1.438,1.372,2.753,2.304,3.965c1.42,1.836,3.13,3.524,4.816,5.117
			c9.721,9.058,21.261,18.038,27.637,29.917c0.335,0.647,0.66,1.337,0.907,2.024c0.249,0.676,0.43,1.399,0.593,2.1"/>
	</g>
	<g id="POLYLINE_178_">
		
			<path fill="none" stroke="#E74C3C" stroke-width="2.75" stroke-linecap="round" stroke-linejoin="round" stroke-miterlimit="10" d="
			M272.377,459.808c3.537,0.746,7.301,0.757,10.906,0.821c0,0,42.604,0.01,42.604,0.01c0.629-0.01,1.488-0.013,2.116-0.043
			c0.954-0.045,1.93-0.114,2.863-0.323c0.912-0.203,1.826-0.57,2.486-1.253c0.777-0.799,1.169-1.889,1.371-2.967
			c0.411-2.332,0.087-4.742-0.51-7.014c-1.16-4.272-3.423-8.45-4.628-12.71c-2.033-6.942-3.029-14.229-3.596-21.427
			c-0.739-10.224-0.383-20.64,1.007-30.795c0.305-2.101,0.713-4.638,1.144-6.718c0.5-2.314,0.944-4.734,1.244-7.083
			c1.083-8.255,0.887-16.716,0.123-24.992c-0.365-3.983-1.441-12.009-1.39-15.9c0.014-0.97,0.069-1.957,0.288-2.904
			c0.146-0.628,0.381-1.244,0.75-1.776c0.645-0.922,1.606-1.586,2.489-2.263c2.384-1.717,5.583-3.955,7.873-5.764
			c3.054-2.442,6.756-5.439,10.005-7.571c6.306-4.217,13.185-7.662,20.131-10.692"/>
	</g>
	<g id="POLYLINE_179_">
		
			<path fill="none" stroke="#E74C3C" stroke-width="2.75" stroke-linecap="round" stroke-linejoin="round" stroke-miterlimit="10" d="
			M297.16,373.753c0.91,8.347,3.75,24.225,5.188,32.678c0.891,5.647,1.478,11.46,1.421,17.178c-0.044,2.971-0.217,6.009-1.069,8.871
			c-0.475,1.58-1.231,3.09-2.297,4.356c-1.461,1.752-3.418,3.017-5.429,4.054c-4.419,2.224-9.239,3.682-14.061,4.735
			c-3.199,0.723-8.127,1.309-11.161,2.536"/>
	</g>
	<g id="POLYLINE_180_">
		
			<path fill="none" stroke="#E74C3C" stroke-width="2.75" stroke-linecap="round" stroke-linejoin="round" stroke-miterlimit="10" d="
			M322.362,268.65c-4.066,4.538-7.977,9.34-11.228,14.502c-0.974,1.546-1.942,3.243-2.786,4.866
			c-0.946,1.819-2.066,4.249-3.086,6.018c-0.576,1.008-1.215,2.008-1.915,2.935c-0.873,1.184-2.657,3.111-3.639,4.231
			c-1.419,1.634-2.76,3.388-3.753,5.317c-0.668,1.282-1.164,2.661-1.517,4.062c-0.766,3.056-1.006,6.372-1.239,9.512
			c-0.163,2.586-0.377,6.1-0.38,8.671c-0.028,2.931,0.112,6.285,0.283,9.22c0.711,11.468,2.47,24.344,4.058,35.771"/>
	</g>
	<g id="POLYLINE_181_">
		
			<path fill="none" stroke="#E74C3C" stroke-width="2.75" stroke-linecap="round" stroke-linejoin="round" stroke-miterlimit="10" d="
			M422.368,323.477c1.484,6.002,3.089,12.473,5.108,18.306c0.854,2.397,1.798,4.827,3.143,6.994c0.907,1.48,2.1,2.777,3.438,3.878
			c1.228,1.034,2.62,2.044,3.938,2.966c5.015,3.392,11.373,7.662,16.042,11.438c13.151,10.471,25.457,23.053,37.872,34.366
			c3.66,3.272,13.605,11.701,16.874,15.056c1.473,1.504,2.891,3.126,4.084,4.862c1.268,1.82,2.246,3.852,2.997,5.936
			c0.534,1.447,1.051,2.952,1.39,4.458c0.273,1.229,0.441,2.504,0.313,3.762c-0.1,1.007-0.406,1.994-0.88,2.888
			c-0.764,1.444-1.904,2.659-3.114,3.74c-2.898,2.562-6.429,4.322-10.056,5.605c-3.03,1.106-6.684,2.101-9.498,3.679
			c-0.855,0.489-1.671,1.081-2.302,1.845c-0.985,1.164-1.511,2.79-1.06,4.284c0.278,0.955,0.948,1.738,1.839,2.176
			c1.095,0.543,2.342,0.691,3.546,0.797c0.708,0.061,1.584,0.086,2.3,0.105c0,0,1.786,0.021,1.786,0.021l43.803-0.006
			c0.945-0.015,1.967-0.033,2.907-0.138c1.664-0.164,3.276-0.785,4.531-1.907c0.69-0.613,1.26-1.375,1.602-2.236
			c0.562-1.422,0.562-3.003,0.338-4.497c-0.203-1.317-0.592-2.615-1.173-3.815c-0.69-1.44-1.633-2.76-2.634-3.999
			c-2.027-2.446-4.444-5.268-6.189-7.898c-2.534-3.865-5.782-9.638-8.315-13.485l-14.203-21.038
			c-6.145-9.396-12.516-20.639-18.371-30.225c-2.724-4.361-5.655-9.035-8.814-13.08c-1.309-1.659-2.719-3.282-4.338-4.648
			c-0.866-0.733-1.824-1.393-2.792-1.983c-3.11-1.95-8.234-4.196-11.581-5.801c-2.018-0.992-4.079-2.042-5.799-3.508
			c-1.159-0.983-2.134-2.184-2.874-3.509c-1.028-1.83-1.675-3.865-2.191-5.892c-1.652-6.882-2.249-14.329-2.955-21.366"/>
	</g>
	<g id="POLYLINE_182_">
		
			<path fill="none" stroke="#E74C3C" stroke-width="2.75" stroke-linecap="round" stroke-linejoin="round" stroke-miterlimit="10" d="
			M236.151,387.059c-1.045,7.101-3.393,21.364-3.977,28.296c-0.16,1.895-0.287,3.935-0.276,5.832c0.011,2.057,0.16,4.146,0.688,6.14
			c1.044,4.013,3.715,7.398,6.741,10.142c1.934,1.735,4.107,3.24,6.415,4.433c2.945,1.522,6.123,2.604,9.337,3.394
			c3.794,0.979,8.299,1.393,12.142,2.162c1.471,0.324,2.976,0.721,4.258,1.539c0.901,0.577,1.659,1.373,2.202,2.295
			c0.756,1.276,1.12,2.753,1.242,4.221c0.063,0.809,0.049,1.656-0.273,2.414c-0.559,1.343-2.025,1.9-3.354,2.172
			c-1.422,0.292-2.937,0.373-4.387,0.442c-7.653,0.197-38.134,0.074-45.616,0.075c-2.921-0.059-5.971-0.103-8.854-0.605
			c-1.519-0.286-3.105-0.696-4.297-1.732c-0.654-0.568-1.139-1.321-1.413-2.141c-0.333-0.984-0.395-2.042-0.335-3.073
			c0.094-1.474,0.403-2.945,0.783-4.369c0.571-2.011,1.413-4.833,1.782-6.858c0.516-2.606,0.828-5.329,0.962-7.981
			c0.183-3.519,0.026-7.178-0.227-10.692c-0.417-5.971-1.511-15.672-2.154-21.706c-0.85-10.364-1.594-21.511-1.477-31.894
			c0.089-5.933,0.416-12.003,1.598-17.828c1.093-5.219,2.885-10.318,5.126-15.151c1.777-3.903,4.636-8.217,6.962-11.843
			c0.434-0.723,0.895-1.466,1.168-2.267c0.056-0.182,0.091-0.373,0.081-0.564c-0.012-0.28-0.13-0.546-0.295-0.769
			c-0.282-0.379-0.666-0.671-1.054-0.934c-1.732-1.117-3.751-1.886-5.658-2.656c-1.828-0.789-3.687-1.643-5.302-2.818
			c-0.881-0.653-1.723-1.441-2.159-2.467c-0.56-1.289-0.231-2.722,0.215-3.993c0.814-2.305,2.111-4.43,3.557-6.391
			c3.028-4.08,6.935-7.457,11.011-10.455c2.085-1.522,4.362-3.042,6.59-4.345c1.333-0.773,2.723-1.531,4.145-2.126
			c1.093-0.454,2.242-0.82,3.424-0.934c0.962-0.096,1.941-0.007,2.881,0.212c2.057,0.479,3.988,1.429,5.766,2.552
			c2.843,1.806,5.367,4.123,7.694,6.546c2.782,2.954,5.446,6.135,7.486,9.654c1.302,2.271,2.277,4.759,2.689,7.352
			c0.168,1.043,0.283,2.114,0.233,3.171c-0.059,1.464-0.478,2.896-1.096,4.219c-1.331,2.915-5.173,8.25-6.931,11.005
			c-4.51,6.83-7.572,14.565-9.909,22.379C240.869,362.611,238.388,375.262,236.151,387.059z"/>
	</g>
	<g id="POLYLINE_183_">
		
			<path fill="none" stroke="#E74C3C" stroke-width="2.75" stroke-linecap="round" stroke-linejoin="round" stroke-miterlimit="10" d="
			M180.964,338.6c-0.249,3.338-0.479,7.402-1.016,10.677c-0.217,1.321-0.502,2.654-0.954,3.916
			c-0.437,1.234-1.074,2.401-1.833,3.466c-3.026,4.24-7.089,7.658-11.397,10.538c-4.953,3.307-10.348,6.105-15.734,8.634
			c-6.986,3.035-12.948,8.023-18.128,13.534c-3.74,3.94-8.119,9.344-12.014,13.119c-2.549,2.507-5.419,4.791-8.296,6.911
			c-4.352,3.186-11.016,7.654-14.96,11.203c-2.351,2.114-4.555,4.481-6.103,7.256c-2.137,3.776-2.716,8.292-2.113,12.553
			c0.397,2.695,1.272,5.482,3.284,7.414c1.365,1.334,3.131,2.168,4.894,2.846c1.869,0.73,4.557,1.556,6.234,2.666
			c0.821,0.538,1.544,1.28,1.89,2.212c0.191,0.51,0.26,1.071,0.164,1.609c-0.091,0.527-0.341,1.023-0.695,1.423
			c-0.609,0.695-1.481,1.089-2.353,1.343c-1.359,0.391-2.795,0.524-4.202,0.615c-3.663,0.187-17.028,0.098-20.853,0.082
			c-0.832-0.028-1.687-0.081-2.507-0.227c-0.874-0.153-1.739-0.423-2.513-0.861c-0.674-0.376-1.272-0.883-1.811-1.433
			c-1.198-1.206-2.68-3.372-3.713-4.749c-1.033-1.402-2.209-2.762-3.43-4.003c-3.532-3.606-7.792-7.018-10.519-11.314
			c-0.828-1.318-1.477-2.78-1.685-4.332c-0.177-1.269-0.05-2.585,0.398-3.788c0.404-1.103,1.073-2.099,1.899-2.931
			c1.567-1.571,3.543-2.682,5.49-3.713c2.782-1.377,6.259-3.165,8.861-4.796c2.322-1.456,4.54-3.153,6.533-5.036
			c1.832-1.722,3.588-3.652,5.21-5.575c5.222-6.146,13.356-18.05,18.245-24.573c3.913-5.147,7.962-10.442,12.829-14.731
			c11.443-10.879,23.926-20.929,37.141-29.578"/>
	</g>
	<g id="POLYLINE_184_">
		
			<path fill="none" stroke="#E74C3C" stroke-width="2.75" stroke-linecap="round" stroke-linejoin="round" stroke-miterlimit="10" d="
			M141.13,272.406c0.792,6.803,1.474,15.466,1.913,22.326l1.559,33.56c0.195,2.645,0.304,5.431,0.949,8.008
			c0.172,0.627,0.399,1.254,0.777,1.788c0.581,0.805,1.459,1.353,2.364,1.73c1.422,0.573,2.974,0.767,4.494,0.881
			c2.373,0.161,4.856,0.071,7.231-0.052c4.322-0.244,9.255-0.735,13.562-1.213c6.842-0.862,33.503-4.305,39.831-4.917"/>
	</g>
	<g id="POLYLINE_185_">
		
			<path fill="none" stroke="#E74C3C" stroke-width="2.75" stroke-linecap="round" stroke-linejoin="round" stroke-miterlimit="10" d="
			M362.294,221.839c-1.422,1.089-3.758,2.805-5.054,3.942c-1.076,0.925-2.141,1.934-3.113,2.963
			c-1.889,1.981-3.956,4.574-5.682,6.728c-3.501,4.45-8.789,11.299-12.482,15.455c-2.642,3.055-9.676,10.4-12.12,13.526
			c-0.477,0.619-0.963,1.272-1.344,1.955c-0.337,0.625-0.764,1.52-0.226,2.148c0.221,0.253,0.531,0.409,0.836,0.539
			c0.895,0.375,2.397,0.714,3.339,1c1.302,0.375,2.637,0.825,3.891,1.334c5.418,2.266,10.494,5.569,15.394,8.784
			c7.298,4.927,14.646,10.328,21.382,15.999l2.519,2.215c0.518,0.432,1.056,0.886,1.705,1.105c0.359,0.121,0.748,0.141,1.121,0.079
			c0.787-0.138,1.513-0.516,2.202-0.906c3.279-1.935,6.878-5.395,9.927-7.683c0.809-0.604,1.663-1.189,2.557-1.662
			c1.164-0.615,2.461-1.063,3.792-1.015c1.321,0.036,2.577,0.604,3.608,1.408c1.149,0.893,2.115,2.014,3.004,3.159
			c3.839,4.989,7.896,13.352,11.013,18.886c1.562,2.76,3.21,5.594,5.243,8.034c1.359,1.594,2.98,3.193,5.052,3.764
			c1.059,0.286,2.186,0.214,3.243-0.048c1.512-0.375,2.944-1.077,4.324-1.785c3.095-1.651,6.612-3.646,9.911-4.794
			c4.76-1.704,9.837-2.709,14.822-3.503c1.296-0.219,7.863-1.02,8.987-1.359c0.326-0.1,0.646-0.245,0.905-0.471
			c0.439-0.383,0.695-0.929,0.888-1.468c0.59-1.773,0.601-3.692,0.413-5.534c-0.34-3.005-1.295-6.657-1.849-9.637
			c-0.671-3.387-1.059-6.954-1.28-10.4l-0.804-15.044c-0.348-4.93-0.845-9.985-2.108-14.77c-1.224-4.885-3.657-10.264-5.551-14.943
			c-0.531-1.337-1.005-2.756-1.379-4.145c-0.456-1.677-0.983-3.954-1.668-5.538c-1.279-2.975-3.411-5.516-5.756-7.714"/>
	</g>
	<g id="POLYLINE_186_">
		
			<path fill="none" stroke="#E74C3C" stroke-width="2.75" stroke-linecap="round" stroke-linejoin="round" stroke-miterlimit="10" d="
			M146.196,219.467c-3.046,4.152-5.495,8.753-7.409,13.529c-1.323,3.328-2.461,6.817-3.253,10.31
			c-1.094,4.851-1.47,9.952-0.435,14.846c1.62,7.531,5.933,14.236,9.992,20.672c9.079,13.878,19.822,29.969,29.573,43.325
			c1.239,1.658,2.578,3.41,3.961,4.946c1.346,1.486,2.815,2.916,4.556,3.933c1.241,0.73,2.648,1.189,4.091,1.257
			c1.566,0.085,3.133-0.212,4.627-0.662c2.38-0.726,4.682-1.852,6.895-2.979c5.568-2.896,10.973-6.398,15.199-11.09"/>
	</g>
	<g id="POLYLINE_187_">
		
			<path fill="none" stroke="#E74C3C" stroke-width="2.75" stroke-linecap="round" stroke-linejoin="round" stroke-miterlimit="10" d="
			M396.468,146.939c1.026,0.674,2.204,1.169,3.44,1.235c1.095,0.063,2.205-0.221,3.141-0.791c0.857-0.517,1.564-1.266,2.085-2.117
			c0.659-1.084,1.074-2.306,1.363-3.536c0.321-1.406,0.475-2.859,0.436-4.301c-0.055-1.701-0.373-3.526-1.556-4.825
			c-0.984-1.085-2.426-1.663-3.857-1.849c-0.847-0.104-1.719-0.046-2.539,0.195c-0.641,0.184-1.24,0.499-1.8,0.857
			c-1.423,0.901-2.87,2.189-4.646,2.19c-0.756-0.001-1.498-0.217-2.186-0.517c-1.046-0.462-2.001-1.127-2.857-1.88
			c-0.993-0.884-1.883-1.908-2.543-3.065c-0.441-0.774-0.744-1.626-0.979-2.483c-0.26-0.958-0.529-2.192-0.952-3.081
			c-0.239-0.514-0.553-0.995-0.933-1.417c-0.942-1.044-2.164-1.804-3.432-2.39c-1.723-0.78-3.598-1.259-5.491-1.325
			c-1.698-0.066-3.534,0.32-5.222,0.474c-0.712,0.057-1.443,0.066-2.142-0.097c-1.391-0.297-2.37-1.471-3.401-2.359
			c-0.285-0.231-0.643-0.527-1.025-0.522l-0.011,0l-0.011,0.001l-0.011,0.001l-0.011,0.001l-0.011,0.001l-0.011,0.001l-0.011,0.002
			l-0.013,0.002l-0.013,0.003l-0.013,0.003l-0.013,0.003l-0.013,0.004l-0.013,0.004l-0.013,0.004l-0.013,0.004l-0.013,0.005
			l-0.013,0.005l-0.013,0.005l-0.013,0.006l-0.013,0.006l-0.013,0.006l-0.013,0.007l-0.013,0.007l-0.013,0.007l-0.012,0.007
			l-0.012,0.008l-0.012,0.008c-0.245,0.166-0.405,0.428-0.536,0.688c-0.272,0.562-0.423,1.179-0.54,1.79
			c-0.365,2.03-0.334,4.135,0.028,6.163c0.317,1.826,0.953,4.024,1.166,5.862c0.129,1.045,0.141,2.112,0.032,3.16
			c-0.178,1.978-0.834,4.399-1.068,6.373c-0.041,0.409-0.06,0.827-0.005,1.235c0.075,0.618,0.347,1.159,0.746,1.63
			c0.294,0.35,0.658,0.741,0.88,1.138c0.179,0.314,0.297,0.662,0.356,1.018c0.086,0.533,0.064,1.088,0.036,1.626
			c-0.117,1.794-0.413,3.923-0.181,5.71c0.116,0.95,0.372,1.901,0.876,2.722c0.48,0.786,1.164,1.433,1.918,1.955
			c1.523,1.042,3.308,1.645,5.1,2.032c2.331,0.491,4.757,0.602,7.127,0.375c1.729-0.173,3.466-0.519,5.092-1.14
			c0.92-0.353,1.81-0.81,2.592-1.414c0.992-0.742,1.808-1.763,2.581-2.723"/>
	</g>
	<g id="POLYLINE_188_">
		
			<path fill="none" stroke="#E74C3C" stroke-width="2.75" stroke-linecap="round" stroke-linejoin="round" stroke-miterlimit="10" d="
			M260.793,104.98c8.15-1.161,17.035-1.942,25.263-2.43c7.135-0.369,14.479-0.522,21.588,0.269c2.463,0.298,4.95,0.733,7.306,1.529
			c2.293,0.744,4.968,2.285,7.112,3.408c2.767,1.484,6.27,2.442,9.24,3.456c2.083,0.681,4.407,1.898,6.559,2.341
			c1.392,0.296,2.839,0.199,4.241,0.031l3.205-0.424c5.036-0.613,10.163-0.008,15.143,0.807"/>
	</g>
	<g id="POLYLINE_189_">
		
			<path fill="none" stroke="#E74C3C" stroke-width="2.75" stroke-linecap="round" stroke-linejoin="round" stroke-miterlimit="10" d="
			M263.413,122.414c12.966,3.367,26.499,4.941,39.886,4.991"/>
	</g>
	<g id="POLYLINE_190_">
		
			<path fill="none" stroke="#E74C3C" stroke-width="2.75" stroke-linecap="round" stroke-linejoin="round" stroke-miterlimit="10" d="
			M336.986,140.131c0.835,0.463,1.76,1.003,2.648,1.346c0.59,0.236,1.222,0.397,1.847,0.51c1.25,0.244,2.674,0.363,3.76,1.076
			c0.529,0.347,0.955,0.831,1.3,1.357c0.426,0.651,0.748,1.378,1.031,2.102c1.579,4.42,3.218,10.592,4.795,15
			c0.944,2.709,2.017,5.536,3.243,8.129c1.371,2.931,3.318,6.217,4.87,9.067c0.825,1.546,1.63,3.163,2.094,4.859
			c0.505,1.753,0.652,3.705,0.81,5.518"/>
	</g>
	<g id="POLYLINE_191_">
		
			<path fill="none" stroke="#E74C3C" stroke-width="2.75" stroke-linecap="round" stroke-linejoin="round" stroke-miterlimit="10" d="
			M384.617,234.58c1.888,0.885,4.059,1.968,6.047,2.527c2.904,0.842,5.989,1.158,8.996,1.391c5.011,0.347,10.133,0.304,15.14-0.095
			c3.899-0.327,7.87-0.873,11.658-1.859c3.326-0.872,6.601-2.14,9.456-4.08c1.713-1.172,3.289-2.607,4.422-4.359
			c0.719-1.111,1.246-2.359,1.464-3.668c0.431-2.49-0.162-5.122-0.321-7.613c-0.063-0.974-0.034-1.966,0.16-2.925
			c0.344-1.775,1.139-3.563,1.597-5.308c0.523-1.856,0.507-3.818,0.385-5.727c-0.166-2.499-0.476-5.405-0.231-7.889
			c0.253-2.802,1.266-6.166,1.948-8.91c0.782-3.087,1.267-6.24,1.139-9.431c-0.099-3.178-0.62-6.372-1.395-9.453
			c-0.821-3.226-1.936-6.419-3.353-9.432c-1.55-3.286-3.605-6.401-6.371-8.788c-3.885-3.429-9.179-5.057-13.897-6.989
			c-1.154-0.484-2.341-0.99-3.38-1.694c-0.685-0.463-1.295-1.038-1.843-1.657c-0.144-0.163-1.004-1.154-1.13-1.287"/>
	</g>
	<g id="POLYLINE_192_">
		
			<path fill="none" stroke="#E74C3C" stroke-width="2.75" stroke-linecap="round" stroke-linejoin="round" stroke-miterlimit="10" d="
			M405.832,143.865c1.265,0.196,2.587,0.213,3.817-0.181c1.939-0.622,3.548-2.09,4.53-3.855c0.838-1.495,1.141-3.221,1.279-4.911
			c0.176-2.072,0.088-5.445,0.147-7.546c0.039-1.966,0.376-4.879,0.568-6.866c0.237-2.527,0.344-5.117-0.008-7.637
			c-0.502-3.591-1.78-7.065-3.588-10.2c-1.899-3.263-4.461-6.223-7.709-8.196c-5.629-3.444-12.663-3.674-18.944-2.143
			c-3.276,0.791-6.458,2.029-9.468,3.537c-2.891,1.463-5.696,3.204-8.219,5.239c-1.978,1.606-3.845,3.416-5.237,5.563
			c-1.814,2.787-2.848,6.16-2.521,9.496"/>
	</g>
	<g id="POLYLINE_193_">
		
			<path fill="none" stroke="#E74C3C" stroke-width="2.75" stroke-linecap="round" stroke-linejoin="round" stroke-miterlimit="10" d="
			M305.734,154.446c-0.135-0.043-0.346-0.117-0.482-0.166c-1.074-0.397-2.32-0.93-3.444-1.094c-1.689-0.253-3.426-0.034-5.107,0.19
			c-2.289,0.302-5.038,0.865-7.337,0.639c-0.969-0.088-1.946-0.309-2.8-0.788c-1.322-0.73-2.169-2.059-2.765-3.407
			c-0.648-1.485-1.121-3.066-1.478-4.645c-0.389-1.812-0.635-3.697-0.394-5.546c0.148-1.083,0.494-2.178,1.213-3.021
			c0.783-0.917,1.908-1.463,3.045-1.808c1.956-0.578,4.03-0.665,6.058-0.624l2.483,0.104c0.802,0.02,1.634-0.01,2.384-0.325
			c0.488-0.2,0.92-0.515,1.302-0.876c0.556-0.524,1.062-1.158,1.533-1.76c1.082-1.384,2.185-2.993,3.567-4.087
			c0.608-0.479,1.303-0.848,2.043-1.075c1.323-0.41,2.748-0.362,4.092-0.082c1.933,0.408,3.759,1.248,5.491,2.181
			c1.24,0.671,2.562,1.496,3.748,2.263c0.675,0.443,1.414,0.919,2.023,1.451"/>
	</g>
	<g id="POLYLINE_194_">
		
			<path fill="none" stroke="#E74C3C" stroke-width="2.75" stroke-linecap="round" stroke-linejoin="round" stroke-miterlimit="10" d="
			M336.47,189.919c0.735,1.745,1.604,3.877,2.501,5.524c0.747,1.402,1.62,2.765,2.563,4.043c1.66,2.244,3.664,4.473,5.559,6.527
			c1.855,2.025,12.191,12.545,14.043,14.568c1.86,1.995,4.707,5.276,6.521,7.342c2.264,2.481,4.664,5.119,7.816,6.449
			c2.054,0.852,4.342,1.011,6.533,0.729c6.128-0.752,12.131-4.977,17.433-7.907c6.366-3.55,13.671-6.206,19.68-10.374
			c7.363-5.077,12.75-12.559,16.766-20.454"/>
	</g>
	<g id="POLYLINE_195_">
		
			<path fill="none" stroke="#E74C3C" stroke-width="2.75" stroke-linecap="round" stroke-linejoin="round" stroke-miterlimit="10" d="
			M340.716,187.649c-0.552,0.44-1.502,1.281-2.093,1.659c-0.431,0.284-0.906,0.526-1.421,0.605c-0.697,0.112-1.396-0.11-2.012-0.425
			c-1.118-0.58-2.075-1.436-2.955-2.328c-3.419-3.485-5.951-8.703-8.702-12.708c-1.004-1.482-2.132-2.916-3.418-4.165
			c-1.76-1.734-4.415-3.708-6.263-5.358c-2.738-2.449-5.144-5.315-7.032-8.468c-1.318-2.24-2.416-4.683-2.759-7.279
			c-0.2-1.555-0.074-3.151,0.311-4.669c0.584-2.316,1.733-4.459,3.078-6.419c0.994-1.447,2.128-2.841,3.56-3.875
			c2.788-2.057,6.415-2.257,9.761-2.251c2.288,0.013,4.818,0.24,7.1,0.454c0.978,0.1,2.156,0.21,3.116,0.4
			c0.798,0.156,1.596,0.377,2.323,0.749c0.734,0.372,1.381,0.916,1.863,1.585c0.624,0.865,1.012,1.882,1.317,2.897
			c1.049,3.553,1.25,8.677,1.622,12.387c0.245,2.446,0.722,4.906,1.744,7.154c1.181,2.636,2.813,5.103,4.451,7.475
			c2.017,2.945,5.041,6.693,7.009,9.677c0.656,1.048,1.331,2.139,1.616,3.355c0.09,0.42,0.118,0.871-0.031,1.281
			c-0.123,0.344-0.36,0.636-0.632,0.875c-0.428,0.373-0.939,0.648-1.441,0.908C347.206,182.872,343.827,185.14,340.716,187.649z"/>
	</g>
	<g id="POLYLINE_196_">
		
			<path fill="none" stroke="#E74C3C" stroke-width="2.75" stroke-linecap="round" stroke-linejoin="round" stroke-miterlimit="10" d="
			M352.727,179.737c2.736,3.254,5.942,6.172,9.443,8.583c1.448,0.981,3.074,1.844,4.64,2.625c3.198,1.565,7.151,3.539,10.417,4.934
			c1.467,0.608,2.975,1.243,4.531,1.582c0.359,0.069,0.732,0.13,1.097,0.084l0.024-0.004l0.024-0.004l0.023-0.004l0.023-0.005
			l0.022-0.005l0.022-0.005l0.021-0.006c0.118-0.033,0.229-0.093,0.313-0.183c0.108-0.113,0.169-0.261,0.212-0.41
			c0.117-0.445,0.154-0.97,0.292-1.41c0.134-0.457,0.349-0.889,0.592-1.296c0.752-1.238,1.761-2.318,2.803-3.317
			c1.617-1.527,3.415-2.891,5.305-4.061c2.898-1.838,6.766-3.404,9.506-5.484c1.896-1.443,3.477-3.286,4.967-5.133"/>
	</g>
	<g id="POLYLINE_197_">
		
			<path fill="none" stroke="#E74C3C" stroke-width="2.75" stroke-linecap="round" stroke-linejoin="round" stroke-miterlimit="10" d="
			M235.448,127.545c2.366,0.161,4.786,0.139,7.114-0.349c1.586-0.332,3.327-1.111,4.885-1.554c3.501-1.005,8.332-1.133,11.933-1.7
			c0.776-0.126,1.574-0.268,2.321-0.517c0.481-0.162,0.953-0.375,1.356-0.687c0.436-0.334,0.768-0.793,0.972-1.301
			c0.333-0.824,0.419-1.728,0.439-2.61c0.023-1.856-0.278-3.737-0.621-5.557c-0.382-1.925-0.863-3.874-1.6-5.696
			c-0.383-0.924-0.832-1.842-1.472-2.616c-0.311-0.372-0.68-0.705-1.113-0.929c-0.404-0.211-0.855-0.324-1.307-0.363
			c-0.728-0.062-1.467,0.037-2.185,0.152c-2.92,0.53-6.038,1.183-8.991,1.453c-1.061,0.092-2.154,0.155-3.216,0.05
			c-0.541-0.056-1.085-0.173-1.578-0.409c-0.454-0.212-0.853-0.528-1.211-0.876c-0.886-0.892-1.842-1.809-2.494-2.893"/>
	</g>
	<g id="POLYLINE_198_">
		
			<path fill="none" stroke="#E74C3C" stroke-width="2.75" stroke-linecap="round" stroke-linejoin="round" stroke-miterlimit="10" d="
			M233.109,125.593c1.519,1.378,3.275,2.687,4.941,3.887c1.386,0.952,3.694,2.66,5.075,3.555c0.873,0.559,1.807,1.046,2.795,1.367
			c0.914,0.302,1.88,0.466,2.835,0.576c2.63,0.299,6.986,0.26,9.656,0.393c5.356,0.208,12.998,1.427,18.356,1.812
			c1.925,0.142,4.086,0.013,6.017-0.09"/>
	</g>
	<g id="POLYLINE_199_">
		
			<path fill="none" stroke="#E74C3C" stroke-width="2.75" stroke-linecap="round" stroke-linejoin="round" stroke-miterlimit="10" d="
			M233.212,157.116c4.746,1.637,9.742,2.743,14.723,3.35c4.408,0.534,8.928,0.681,13.352,0.265
			c4.338-0.399,8.652-1.304,12.824-2.549c4.258-1.278,8.442-2.931,12.381-4.996"/>
	</g>
	<g id="POLYLINE_200_">
		
			<path fill="none" stroke="#E74C3C" stroke-width="2.75" stroke-linecap="round" stroke-linejoin="round" stroke-miterlimit="10" d="
			M186.871,83.433c-0.424-1.504-0.809-3.066-0.876-4.632c-0.087-1.745,0.13-3.502,0.5-5.205c0.829-3.689,2.411-7.345,5.137-10.029
			c5.4-5.264,15.234-4.866,22.191-3.745c3.614,0.6,7.22,1.53,10.572,3.026c2.893,1.285,5.605,3.097,7.615,5.568
			c0.671,0.823,1.285,1.715,1.733,2.68c0.234,0.517,0.436,1.068,0.456,1.641c0.005,0.192-0.013,0.387-0.074,0.569
			c-0.031,0.092-0.074,0.183-0.141,0.253c-0.047,0.049-0.112,0.085-0.181,0.084c-0.13,0.023-0.33,0.065-0.461,0.094
			c-0.611,0.139-1.366,0.335-1.985,0.387c-0.535,0.052-1.084,0.041-1.618-0.009c-1.056-0.102-2.149-0.326-3.186-0.555
			c-2.14-0.438-12.313-3.345-14.605-3.961c-3.149-0.814-6.414-1.632-9.66-1.902c-2.04-0.161-4.143-0.091-6.101,0.553
			c-3.355,1.088-5.831,3.932-7.396,6.996c-0.849,1.671-1.441,3.48-1.706,5.336c-0.524,3.343,0.061,8.419,0.175,11.818
			c0.117,3.301,0.2,6.748-0.072,10.037c-0.094,0.983-0.204,1.993-0.492,2.94c-0.133,0.425-0.322,0.845-0.629,1.173
			c-0.209,0.226-0.469,0.402-0.743,0.541c-0.889,0.431-1.889,0.653-2.844,0.892l-6.506,1.451c-3.176,0.761-6.376,1.702-9.381,2.986
			c-3.188,1.366-6.255,3.132-9.042,5.195c-2.984,2.241-5.8,4.851-7.743,8.067c-0.799,1.336-1.375,2.806-1.788,4.304
			c-0.506,1.781-0.811,3.874-1.381,5.636c-0.636,2.042-1.994,3.756-3.423,5.309c-4.847,5.008-9.315,10.588-12.635,16.726
			c-2.317,4.28-4.083,8.892-5.088,13.658c-0.57,2.788-0.971,5.661-0.841,8.512c0.129,2.488,0.762,5.292,2.938,6.786
			c0.969,0.672,2.115,1.049,3.264,1.273c1.895,0.361,3.859,0.351,5.779,0.246c2.346-0.136,4.834-0.476,7.16-0.826
			c14.443-2.264,32.076-6.661,46.414-9.836"/>
	</g>
	<g id="POLYLINE_201_">
		
			<path fill="none" stroke="#E74C3C" stroke-width="2.75" stroke-linecap="round" stroke-linejoin="round" stroke-miterlimit="10" d="
			M143.174,187.401c0.153,2.709,0.718,7.899,0.818,10.595c0.143,2.506,0.003,7.386-0.025,9.948c0.003,2.483,0.047,5.035,0.535,7.475
			c0.298,1.438,0.766,2.893,1.697,4.052c0.599,0.753,1.375,1.354,2.221,1.806c1.171,0.626,2.469,1.005,3.757,1.307
			c0.85,0.199,1.858,0.383,2.721,0.534c9.625,1.564,25.08,3.907,34.458,6.009l8.321,1.961c1.862,0.403,3.795,0.82,5.706,0.815
			c1.114-0.012,2.294-0.19,3.206-0.874c0.782-0.585,1.247-1.49,1.549-2.4c0.531-1.651,0.652-3.416,0.742-5.139l0.164-4.997
			c0.123-2.627,0.411-5.309,0.942-7.886c0.455-2.394,1.6-5.903,2.316-8.267c0.478-1.614,0.927-3.321,1.231-4.976
			c0.779-4.015,0.73-9.705,0.89-13.821c0.066-1.553,0.187-3.172,0.45-4.703c0.262-1.677,0.913-4.024,1.347-5.685"/>
	</g>
	<g id="POLYLINE_202_">
		
			<path fill="none" stroke="#E74C3C" stroke-width="2.75" stroke-linecap="round" stroke-linejoin="round" stroke-miterlimit="10" d="
			M187.219,155.743c-1.337,0.06-15.202,0.863-16.102,0.829c-0.843,0.006-1.733,0.015-2.569-0.097
			c-0.28-0.045-0.604-0.093-0.839-0.261c-0.098-0.073-0.163-0.179-0.153-0.304l0.001-0.007c0.01-0.114,0.062-0.22,0.119-0.317
			c0.328-0.534,1.254-1.425,1.675-1.903c1.522-1.638,2.681-3.591,3.642-5.601c1.176-2.483,2.092-5.114,2.689-7.796"/>
	</g>
	<g id="POLYLINE_203_">
		
			<path fill="none" stroke="#E74C3C" stroke-width="2.75" stroke-linecap="round" stroke-linejoin="round" stroke-miterlimit="10" d="
			M190.422,177.838c-0.377-0.602-0.673-1.278-0.951-1.93c-0.439-1.058-0.825-2.174-1.16-3.27c-1.371-4.496-2.004-9.254-1.652-13.95
			c0.078-0.845,0.18-1.707,0.415-2.524c0.103-0.347,0.233-0.695,0.456-0.984c0.253-0.333,0.629-0.543,1.015-0.689
			c0.737-0.274,1.569-0.428,2.34-0.585c2.764-0.552,6.026-0.936,8.578-2.141c1.392-0.665,2.583-1.705,3.428-2.995
			c0.63-0.936,1.136-2.095,1.707-3.066c0.404-0.69,0.876-1.351,1.433-1.926c0.987-1.033,2.232-1.785,3.5-2.423
			c2.195-1.087,4.562-1.874,6.923-2.512c2.294-0.605,4.661-1.092,7.023-1.324c0.949-0.085,1.924-0.128,2.872-0.01
			c0.626,0.08,1.253,0.236,1.816,0.528c0.471,0.242,0.891,0.585,1.224,0.997c0.596,0.738,0.953,1.638,1.232,2.537
			c0.533,1.725,0.888,4.198,1.204,5.995c0.595,3.721,1.436,7.963,1.503,11.719c0.044,2.488-0.153,5.201-1.769,7.217
			c-0.714,0.907-1.644,1.625-2.631,2.213c-1.246,0.74-2.614,1.322-3.962,1.849c-2.517,0.969-5.199,1.758-7.824,2.384
			c-2.214,0.511-4.495,0.953-6.767,1.069c-1.354,0.067-3.31,0.048-4.618,0.362c-1.821,0.402-4.255,1.645-5.982,2.38
			c-1.778,0.774-3.645,1.392-5.556,1.728c-0.88,0.144-1.823,0.29-2.712,0.168c-0.199-0.033-0.398-0.096-0.564-0.214
			C190.724,178.287,190.565,178.062,190.422,177.838z"/>
	</g>
	<g id="POLYLINE_204_">
		
			<path fill="none" stroke="#E74C3C" stroke-width="2.75" stroke-linecap="round" stroke-linejoin="round" stroke-miterlimit="10" d="
			M235.37,103.592c0.011-0.367-0.036-0.796,0.224-1.092c0.18-0.198,0.44-0.297,0.686-0.386c0.732-0.254,1.572-0.39,2.221-0.835
			c0.293-0.203,0.539-0.472,0.719-0.778c0.378-0.64,0.479-1.439,0.255-2.149c-0.348-1.103-1.358-2.152-2.038-3.07
			c-0.731-0.965-1.478-1.974-1.841-3.143c-0.17-0.556-0.239-1.143-0.206-1.723c0.03-0.595,0.174-1.181,0.366-1.743
			c0.356-1.011,0.76-2.096,0.889-3.161c0.135-1.009,0.103-2.042,0.006-3.053c-0.168-1.668-0.54-3.337-1.065-4.929
			c-0.452-1.35-1.026-2.675-1.782-3.885"/>
	</g>
	<g id="POLYLINE_205_">
		
			<path fill="none" stroke="#E74C3C" stroke-width="2.75" stroke-linecap="round" stroke-linejoin="round" stroke-miterlimit="10" d="
			M205.006,104.37c-1.557,0.293-3.214,0.356-4.724-0.187c-0.926-0.33-1.753-0.906-2.432-1.612c-1.891-1.984-2.718-4.76-2.896-7.446
			c-0.099-1.749,0.047-3.567,0.763-5.184c0.399-0.893,1.031-1.708,1.901-2.18c0.796-0.443,1.716-0.634,2.622-0.644
			c0.882-0.004,1.779,0.152,2.582,0.527c0.512,0.238,0.969,0.599,1.306,1.053c0.469,0.62,0.72,1.386,0.955,2.119"/>
	</g>
	<g id="POLYLINE_206_">
		
			<path fill="none" stroke="#E74C3C" stroke-width="2.75" stroke-linecap="round" stroke-linejoin="round" stroke-miterlimit="10" d="
			M225.388,124.999c-4.375,0.613-8.964,0.228-13.07-1.454c-3.271-1.353-6.111-3.609-8.461-6.233"/>
	</g>
	<g id="POLYLINE_207_">
		
			<path fill="none" stroke="#E74C3C" stroke-width="2.75" stroke-linecap="round" stroke-linejoin="round" stroke-miterlimit="10" d="
			M236.254,104.032c-0.521-0.476-1.275-0.555-1.95-0.48c-0.827,0.094-1.625,0.383-2.377,0.731c-1.24,0.583-2.379,1.387-3.369,2.332
			c-1.011,0.967-1.873,2.101-2.52,3.342c-0.598,1.14-1.003,2.384-1.28,3.639c-0.614,2.895-0.696,5.925-0.238,8.849
			c0.1,0.573,0.221,1.156,0.421,1.703c0.131,0.354,0.305,0.699,0.554,0.985c0.584,0.681,1.514,0.892,2.368,0.996
			c1.577,0.168,3.19,0.021,4.723-0.38c0.872-0.24,1.748-0.577,2.44-1.176c0.662-0.563,1.09-1.365,1.26-2.212
			c0.304-1.437-0.034-3.003,0.23-4.445c0.15-0.893,0.489-1.92,0.577-2.822c0.099-0.862-0.063-1.888-0.139-2.752
			c-0.142-1.218,0.071-2.512,0.191-3.725c0.091-0.991,0.11-2.008-0.098-2.986C236.918,105.048,236.703,104.446,236.254,104.032z"/>
	</g>
	<g id="POLYLINE_208_">
		
			<path fill="none" stroke="#E74C3C" stroke-width="2.75" stroke-linecap="round" stroke-linejoin="round" stroke-miterlimit="10" d="
			M792.651,145.964c-0.076-0.353-0.32-0.636-0.586-0.866c-0.383-0.331-0.821-0.662-1.102-1.089
			c-0.266-0.385-0.428-0.833-0.546-1.282c-0.191-0.739-0.271-1.511-0.301-2.272c-0.055-1.791,0.139-3.606,0.641-5.329
			c0.285-0.928,0.66-1.873,1.345-2.582c0.469-0.488,1.173-0.876,1.862-0.669c0.405,0.118,0.715,0.435,0.936,0.783
			c0.407,0.649,0.614,1.404,0.777,2.146c0.258,1.243,0.358,2.53,0.388,3.798c0.026,0.887-0.034,2.154-0.022,3.043
			c0.016,0.476,0.022,0.976,0.211,1.421c0.053,0.118,0.127,0.229,0.227,0.312c0.093,0.077,0.209,0.124,0.327,0.144
			c0.462,0.07,0.98-0.108,1.42-0.239c0.992-0.326,2.197-0.763,3.224-0.915c0.82-0.13,1.665-0.131,2.491-0.058
			c1.394,0.125,2.784,0.457,4.132,0.823c1.18,0.321,4.756,1.417,5.933,1.736c1.575,0.442,4.843,1.224,6.402,1.691
			c1.626,0.483,3.271,1.036,4.757,1.866c0.894,0.503,1.741,1.123,2.397,1.919c1.286,1.554,1.661,3.657,1.55,5.627
			c-0.229,3.712-1.851,7.236-4.101,10.156c-1.729,2.242-3.839,4.19-6.073,5.92c-2.413,1.861-5.022,3.503-7.748,4.865
			c-2.343,1.151-4.798,2.179-7.365,2.699c-1.366,0.266-2.79,0.363-4.164,0.094c-1.004-0.192-1.964-0.605-2.811-1.177
			c-1.613-1.089-2.857-2.668-3.722-4.399c-0.526-1.052-0.897-2.188-1.174-3.329c-0.343-1.357-0.682-3.713-0.912-5.12
			c-0.162-1.05-0.563-2.894-0.786-3.953c-0.437-2.086-0.687-4.262-0.283-6.374c0.437-2.431,1.685-4.997,2.412-7.35
			c0.127-0.425,0.241-0.867,0.289-1.309C792.7,146.452,792.705,146.202,792.651,145.964z"/>
	</g>
	<g id="POLYLINE_209_">
		
			<path fill="none" stroke="#E74C3C" stroke-width="2.75" stroke-linecap="round" stroke-linejoin="round" stroke-miterlimit="10" d="
			M794.15,131.946c0.906-2.906,2.417-5.771,3.754-8.502c1.211-2.387,2.593-4.749,4.451-6.694c1.17-1.228,2.539-2.286,4.072-3.021
			c1.669-0.803,3.507-1.22,5.339-1.437c2.381-0.273,4.808-0.212,7.187,0.056c2.054,0.245,4.136,0.627,6.102,1.279
			c0.65,0.219,1.301,0.485,1.899,0.822c0.592,0.308,1.308,0.883,1.86,1.268c1.157,0.826,2.764,1.643,3.994,2.365
			c1.403,0.822,2.799,1.729,4.001,2.829c0.834,0.762,1.588,1.631,2.16,2.608c0.652,1.105,1.092,2.33,1.373,3.579
			c0.602,2.719,0.511,5.556,0.15,8.303c-0.506,3.7-1.525,7.346-2.838,10.837c-1.45,3.797-3.247,7.507-5.555,10.86
			c-1.445,2.104-3.204,4.027-5.018,5.818"/>
	</g>
	<g id="POLYLINE_210_">
		
			<path fill="none" stroke="#E74C3C" stroke-width="2.75" stroke-linecap="round" stroke-linejoin="round" stroke-miterlimit="10" d="
			M792.072,148.955c-5.479,2.323-10.308,6.022-14.384,10.325c-1.938,2.059-3.76,4.289-5.102,6.788
			c-0.994,1.856-1.714,3.897-1.859,6.008c-0.393,6.175,3.83,12.287,8.423,16.067c2.885,2.341,6.451,4.22,10.254,4.106
			c3.058-0.117,5.896-1.541,8.39-3.223c1.577-1.069,3.1-2.314,4.531-3.572c2.489-2.195,4.763-4.682,6.56-7.479"/>
	</g>
	<g id="POLYLINE_211_">
		
			<path fill="none" stroke="#E74C3C" stroke-width="2.75" stroke-linecap="round" stroke-linejoin="round" stroke-miterlimit="10" d="
			M725.07,151.806c-2.54,1.38-3.613,2.431-3.013,5.471c0.384,1.863,1.148,3.641,2.038,5.315c0.425,0.816,1.066,1.751,1.545,2.542
			c0.148,0.251,0.288,0.513,0.396,0.783c0.116,0.288,0.194,0.594,0.215,0.904c0.026,0.363-0.022,0.731-0.094,1.087
			c-0.28,1.288-0.801,2.625-1.013,3.928c-0.2,1.1-0.204,2.236-0.076,3.345c0.426,3.463,1.788,6.767,3.489,9.79
			c0.95,1.645,2.036,3.249,3.387,4.593c0.778,0.763,1.66,1.458,2.681,1.86c0.505,0.199,1.046,0.308,1.588,0.325
			c0.883,0.03,1.763-0.162,2.611-0.395c3.408-1.092,8.125-2.471,11.416-3.807c2.634-1.099,5.368-2.416,7.116-4.757
			c0.984-1.315,1.597-2.963,1.461-4.62c-0.077-0.991-0.419-1.944-0.848-2.833c-0.617-1.285-1.786-3.088-2.493-4.34
			c-1.258-2.222-2.935-5.507-4.425-7.539c-0.848-1.196-2.182-2.49-3.207-3.549c-0.597-0.629-1.179-1.305-1.675-2.016
			c-0.653-0.935-1.224-1.979-1.75-2.992c-0.847-1.598-1.974-4.2-3.029-5.636c-0.267-0.354-0.574-0.686-0.94-0.94
			c-0.806-0.572-1.833-0.668-2.794-0.65c-1.529,0.04-3.052,0.344-4.529,0.723c-2.363,0.607-4.653,1.545-6.794,2.714L725.07,151.806z
			"/>
	</g>
	<g id="POLYLINE_212_">
		
			<path fill="none" stroke="#E74C3C" stroke-width="2.75" stroke-linecap="round" stroke-linejoin="round" stroke-miterlimit="10" d="
			M750.547,162.802c0.794-0.683,2.072-1.836,2.901-2.44c0.629-0.47,1.303-0.912,1.979-1.311c1.573-0.925,3.346-1.779,5-2.556
			c1.486-0.778,27.906-12.013,30.236-13.032"/>
	</g>
	<g id="POLYLINE_213_">
		
			<path fill="none" stroke="#E74C3C" stroke-width="2.75" stroke-linecap="round" stroke-linejoin="round" stroke-miterlimit="10" d="
			M738.499,147.696c-0.705-0.689-1.431-1.418-2.06-2.175c-0.623-0.742-1.213-1.577-1.745-2.388c-1.172-1.81-2.269-3.716-3.17-5.676
			c-0.19-0.43-0.388-0.876-0.502-1.333c-0.031-0.131-0.056-0.267-0.052-0.402c0.004-0.099,0.026-0.207,0.102-0.277l0.003-0.003
			l0.003-0.003l0.003-0.003l0.003-0.003l0.003-0.003c0.005-0.004,0.012-0.009,0.018-0.012l0.005-0.003l0.005-0.003l0.005-0.003
			l0.005-0.003l0.005-0.003l0.005-0.002l0.005-0.002l0.005-0.002l0.005-0.002l0.005-0.002l0.005-0.002
			c0.102-0.036,0.213-0.028,0.318-0.012c0.264,0.043,0.521,0.144,0.768,0.245c1.221,0.533,2.779,1.405,3.996,1.939
			c1.565,0.712,3.224,1.312,4.879,1.777c4.987,1.418,11.418,2.102,16.504,3.179c0.246,0.071,0.525,0.139,0.69,0.349
			c0.084,0.11,0.117,0.25,0.128,0.386c0.019,0.223-0.006,0.451-0.036,0.673c-0.085,0.589-0.256,1.206-0.41,1.781
			c-0.475,1.639-1.172,3.944-1.551,5.584c-0.495,1.995-1.246,6.078-1.647,8.141"/>
	</g>
	<g id="POLYLINE_214_">
		
			<path fill="none" stroke="#E74C3C" stroke-width="2.75" stroke-linecap="round" stroke-linejoin="round" stroke-miterlimit="10" d="
			M722.313,154.04c-3.277-2.898-6.434-6.038-8.967-9.616c-2.471-3.455-4.597-7.341-6.548-11.115
			c-1.777-3.553-3.712-7.413-5.227-11.079c-0.921-2.348-1.758-4.891-1.37-7.441c0.198-1.256,0.709-2.464,1.471-3.482
			c0.75-1.006,1.746-1.828,2.872-2.381c1.121-0.551,2.358-0.84,3.591-1.011c2.484-0.363,5.963-0.216,8.494-0.248
			c2.87-0.028,6.808-0.274,9.656-0.107c2.152,0.105,4.329,0.395,6.424,0.901c5.968,1.444,12.696,4.511,18.575,6.283
			c1.678,0.513,3.464,0.963,5.19,1.283c2.431,0.466,6.848,0.974,9.312,1.298c2.439,0.344,4.919,0.817,7.267,1.565
			c3.481,1.115,6.828,2.718,9.97,4.577c1.817,1.088,3.621,2.292,5.245,3.654c1.265,1.048,2.376,2.29,3.247,3.685l0.908,1.45"/>
	</g>
	<g id="POLYLINE_215_">
		
			<path fill="none" stroke="#E74C3C" stroke-width="2.75" stroke-linecap="round" stroke-linejoin="round" stroke-miterlimit="10" d="
			M740.46,190.849c0.213,1.274,0.447,3.289,0.745,4.499c0.217,0.937,0.508,1.873,0.877,2.761c0.737,1.784,1.769,3.457,2.866,5.041
			c1.566,2.25,3.399,4.438,5.25,6.461c10.735,11.598,24.495,20.619,39.749,24.95c2.652,0.717,5.385,1.313,8.138,1.402
			c1.524,0.03,3.145-0.078,4.474-0.895c1.035-0.632,1.73-1.677,2.249-2.75c0.729-1.512,1.262-3.141,1.717-4.755
			c0.568-2.119,1.07-4.315,1.187-6.511c0.068-1.084-0.077-2.255-0.197-3.334"/>
	</g>
	<g id="POLYLINE_216_">
		
			<path fill="none" stroke="#E74C3C" stroke-width="2.75" stroke-linecap="round" stroke-linejoin="round" stroke-miterlimit="10" d="
			M825.552,165.398c0.331,0.342,0.73,0.719,0.749,1.226c0.01,0.375-0.15,0.729-0.317,1.056c-0.163,0.31-0.376,0.646-0.57,0.941
			c-2.197,3.081-9.616,15.068-11.778,18.486c-2.455,3.984-5.425,8.589-7.42,12.794c-1.118,2.361-2.085,4.853-2.44,7.454
			c-0.294,2.146-0.171,4.423,0.794,6.393c0.461,0.954,1.094,1.826,1.771,2.638c0.796,0.946,1.921,2.098,2.653,3.091
			c0.65,0.878,1.15,1.873,1.44,2.927c0.3,1.077,0.413,2.207,0.47,3.32c0.185,4.021-0.52,11.09-0.744,15.155
			c-0.609,9.254,0.518,20.239,0.11,29.507c-0.139,3.075-0.611,6.198-1.242,9.209c-0.929,4.314-2.134,9.413-2.38,13.799
			c-0.478,7.121,0.07,14.366,1.144,21.413"/>
	</g>
	<g id="POLYLINE_217_">
		
			<path fill="none" stroke="#E74C3C" stroke-width="2.75" stroke-linecap="round" stroke-linejoin="round" stroke-miterlimit="10" d="
			M821.175,316.878c2.265-4.794,4.495-9.776,5.909-14.888c1.593-5.578,2.296-11.484,2.806-17.253
			c0.555-6.124,0.839-15.301,1.508-21.379c0.373-3.866,3.035-15.344,3.825-19.342c3.792-18.417,5.7-37.751,1.512-56.265
			c-0.664-2.889-1.491-5.798-2.56-8.565c-0.717-1.835-1.558-3.674-2.617-5.34c-1.461-2.364-3.504-4.371-5.532-6.251"/>
	</g>
	<g id="POLYLINE_218_">
		
			<path fill="none" stroke="#E74C3C" stroke-width="2.75" stroke-linecap="round" stroke-linejoin="round" stroke-miterlimit="10" d="
			M740.691,192.385c-1.104,2.96-2.308,6.286-3.065,9.338c-1.606,6.462-2.521,13.252-3.127,19.878"/>
	</g>
	<g id="POLYLINE_219_">
		
			<path fill="none" stroke="#E74C3C" stroke-width="2.75" stroke-linecap="round" stroke-linejoin="round" stroke-miterlimit="10" d="
			M742.634,243.37c4.607,2.23,9.606,3.756,14.576,4.945c8.064,1.883,16.402,2.763,24.674,2.919
			c4.399,0.056,8.885-0.064,13.238-0.734c1.918-0.323,3.885-0.709,5.62-1.621c0.897-0.48,1.718-1.165,2.189-2.082
			c0.721-1.415,0.636-3.113,0.528-4.655l-0.252-2.722c-0.096-1.225-0.221-3.325-0.398-4.517"/>
	</g>
	<g id="POLYLINE_220_">
		
			<path fill="none" stroke="#E74C3C" stroke-width="2.75" stroke-linecap="round" stroke-linejoin="round" stroke-miterlimit="10" d="
			M767.467,297.291c6.912-3.284,14.529-4.941,22.112-5.71c2.117-0.191,4.285-0.283,6.406-0.113c1.481,0.124,2.976,0.373,4.365,0.914
			c1.182,0.457,2.256,1.179,3.156,2.068c1.182,1.154,2.1,2.594,2.966,3.993"/>
	</g>
	<g id="POLYLINE_221_">
		
			<path fill="none" stroke="#E74C3C" stroke-width="2.75" stroke-linecap="round" stroke-linejoin="round" stroke-miterlimit="10" d="
			M803.152,246.298c0.329,0.51,0.777,1.118,1.037,1.665c0.176,0.361,0.308,0.746,0.382,1.141c0.086,0.458,0.095,0.932,0.075,1.397
			c-0.071,1.606-0.644,4.319-0.901,5.931c-0.442,2.599-0.542,5.27-0.355,7.898c0.106,1.633,0.317,3.427,0.544,5.048
			c0.599,3.877,2.43,16.053,3.167,19.844"/>
	</g>
	<g id="POLYLINE_222_">
		
			<path fill="none" stroke="#E74C3C" stroke-width="2.75" stroke-linecap="round" stroke-linejoin="round" stroke-miterlimit="10" d="
			M845.318,367.456c3.424,2.651,7.162,5.94,10.44,8.791c3.574,3.177,7.396,6.643,10.673,10.107
			c4.639,4.906,8.899,10.363,12.745,15.909c1.613,2.385,3.222,4.857,4.393,7.493c0.906,2.039,1.506,4.268,1.362,6.514
			c-0.063,1.149-0.346,2.287-0.829,3.332c-0.873,1.889-2.273,3.484-3.724,4.952c-3.765,3.726-8.807,7.643-12.889,11.038
			c-3.136,2.518-6.462,4.981-10.069,6.782c-3.01,1.545-7.197,2.955-10.344,4.231c-1.514,0.615-3.08,1.306-4.485,2.144
			c-2.236,1.31-4.354,3.295-6.303,4.993c-0.93,0.788-1.912,1.578-2.945,2.222c-0.986,0.623-2.052,1.155-3.126,1.609
			c-5.166,2.14-10.831,2.777-16.377,2.989c-2.775,0.104-10.846,0.088-13.703,0.062c-0.56-0.022-1.142-0.057-1.695-0.155
			c-0.811-0.137-1.638-0.428-2.198-1.059c-0.784-0.88-1.044-2.099-1.251-3.227c-0.668-3.88,0.124-7.851,1.355-11.54
			c2.324-6.792,5.885-13.202,10.368-18.805c3.526-4.36,7.855-8.338,13.204-10.269c1.809-0.651,3.729-1.054,5.657-1.032
			c3.254,0.031,6.467,1.227,9.006,3.251c0.432,0.323,1.284,1.079,1.757,1.341c0.276,0.164,0.579,0.291,0.898,0.339
			c0.512,0.08,1.037-0.012,1.524-0.175c2.007-0.691,3.48-2.405,5.256-3.493c0.843-0.517,1.78-0.881,2.722-1.176
			c1.838-0.587,4.835-1.212,6.665-1.825c0.17-0.067,0.347-0.136,0.49-0.252c0.098-0.081,0.158-0.187,0.146-0.317
			c-0.009-0.113-0.055-0.221-0.102-0.323c-0.604-1.128-1.388-2.45-1.958-3.589c-1.293-2.543-3.922-8.11-5.261-10.562
			c-2.095-3.913-4.406-7.947-6.865-11.641c-1.166-1.74-2.464-3.468-3.833-5.053c-1.017-1.175-2.527-2.768-3.454-4.007
			c-0.604-0.822-1.234-1.756-1.404-2.776c-0.055-0.362-0.026-0.737,0.09-1.085c0.156-0.475,0.45-0.895,0.78-1.266
			c0.551-0.614,1.206-1.139,1.87-1.624c1.106-0.799,2.316-1.509,3.534-2.123c1.341-0.665,2.747-1.274,4.187-1.692
			c0.417-0.113,0.847-0.23,1.282-0.232c0.39-0.004,0.77,0.121,1.109,0.308C844.47,366.808,844.902,367.147,845.318,367.456z"/>
	</g>
	<g id="POLYLINE_223_">
		
			<path fill="none" stroke="#E74C3C" stroke-width="2.75" stroke-linecap="round" stroke-linejoin="round" stroke-miterlimit="10" d="
			M832.283,376.667c-0.621,0.1-1.26,0.174-1.888,0.098c-0.362-0.045-0.724-0.146-1.037-0.337c-0.369-0.225-0.645-0.573-0.864-0.94
			c-0.712-1.251-1.1-2.823-1.782-4.097c-0.928-1.81-2.24-3.44-3.855-4.684c-1.156-0.895-2.489-1.557-3.82-2.15
			c-2.242-0.966-5.106-2.122-7.153-3.421c-2.758-1.7-5.317-3.927-6.826-6.837c-1.609-3.111-1.937-6.827-1.039-10.2
			c0.508-1.934,1.444-3.743,2.612-5.359c2.536-3.478,6.022-6.206,9.805-8.218c2.206-1.146,4.568-2.093,7.036-2.473
			c1.386-0.207,2.847-0.202,4.165,0.321c1.177,0.458,2.168,1.292,2.998,2.229c1.383,1.579,2.392,3.486,2.984,5.498
			c0.55,1.896,0.73,3.891,0.71,5.859c0.013,2.278-0.506,4.774-0.176,7.043c0.13,0.883,0.455,1.731,0.894,2.505
			c1.003,1.754,2.604,3.506,3.743,5.171c1.289,1.794,2.942,4.571,4.608,6.035l0.887,0.769c0.351,0.315,0.69,0.666,0.892,1.099
			c0.401,0.887,0.338,1.947,0.141,2.88"/>
	</g>
	<g id="POLYLINE_224_">
		
			<path fill="none" stroke="#E74C3C" stroke-width="2.75" stroke-linecap="round" stroke-linejoin="round" stroke-miterlimit="10" d="
			M831.182,331.26c5.127,0.946,18.017,2.997,22.887,4.164c0.954,0.242,1.927,0.519,2.836,0.899c0.908,0.384,1.812,0.883,2.431,1.669
			c0.823,1.031,0.912,2.423,0.814,3.689c-0.187,2.119-0.725,4.243-1.26,6.298c-1.211,4.438-2.838,8.827-4.936,12.925
			c-1.615,3.12-3.535,6.14-5.989,8.671"/>
	</g>
	<g id="POLYLINE_225_">
		
			<path fill="none" stroke="#E74C3C" stroke-width="2.75" stroke-linecap="round" stroke-linejoin="round" stroke-miterlimit="10" d="
			M803.538,347.337c-2.208,0-4.559-0.438-6.304-1.874c-0.776-0.645-1.366-1.498-1.766-2.421c-0.844-1.951-0.899-4.248-0.053-6.208
			c0.825-1.957,2.257-3.73,3.246-5.602c0.883-1.626,1.442-3.428,1.917-5.21l0.961-3.805c0.52-1.967,1.198-3.966,2.486-5.573
			c0.29-0.355,0.612-0.692,0.982-0.964c0.318-0.234,0.676-0.413,1.05-0.538c1.26-0.403,2.658-0.412,3.971-0.424
			c2.978,0.039,6.001,0.344,8.863,1.193c1.383,0.428,2.796,1.039,3.721,2.199c0.26,0.32,0.482,0.674,0.668,1.041
			c0.282,0.528,0.734,1.817,0.963,2.383c0.397,0.994,0.614,2.055,0.695,3.12c0.087,1.086,0.077,2.19-0.086,3.269"/>
	</g>
	<g id="POLYLINE_226_">
		
			<path fill="none" stroke="#E74C3C" stroke-width="2.75" stroke-linecap="round" stroke-linejoin="round" stroke-miterlimit="10" d="
			M827.003,371.993c-4.223,0.116-8.675,0.205-12.882-0.085c-3.407-0.228-6.883-0.687-10.232-1.338
			c-9.374-1.757-25.243-6.613-34.587-9.225c-1.651-0.496-3.375-1.055-4.963-1.723c-3.727-1.52-7.033-3.954-9.838-6.82
			c-2.857-2.929-5.329-6.314-6.938-10.091c-0.763-1.791-1.338-3.696-1.783-5.59c-0.659-2.606-2.403-13.505-2.921-16.303
			c-1.422-7.254-6.947-37.039-8.485-43.602c-0.73-3.163-1.576-6.562-2.543-9.651c-1.114-3.563-2.462-7.126-4.322-10.371
			c-2.372-4.205-5.72-7.856-9.701-10.586c-2.958-2.055-6.273-3.649-9.78-4.501c-1.673-0.409-3.4-0.654-5.122-0.728
			c-3.44-0.164-7.54,0.381-10.982,0.691c-1.606,0.127-3.29,0.264-4.895,0.079c-1.07-0.129-2.169-0.442-2.99-1.169
			c-0.457-0.403-0.796-0.936-0.972-1.519c-0.233-0.761-0.22-1.579-0.077-2.355c0.871-4.407,5.099-6.919,8.85-8.722
			c3.08-1.445,6.354-2.697,9.573-3.797c3.137-1.045,6.392-1.954,9.667-2.433c1.481-0.217,3.021-0.331,4.517-0.336
			c2.25-0.023,5.09,0.211,7.341,0.222c0.977,0.005,2-0.031,2.972-0.131c1.299-0.131,3.068-0.44,4.365-0.575
			c1.232-0.126,2.505-0.177,3.717,0.119c0.577,0.141,1.139,0.367,1.644,0.681c0.594,0.37,1.115,0.853,1.572,1.38
			c0.993,1.155,1.727,2.519,2.321,3.915c0.694,1.658,1.212,3.414,1.501,5.189c0.231,1.337,0.217,2.888,0.234,4.247
			c0.013,2.026,0.527,4.019,1.172,5.928c0.762,2.272,1.755,4.647,2.708,6.849c4.26,9.368,11.908,25.95,16.606,35.006
			c1.223,2.288,3.442,6.06,4.379,8.406c0.706,1.712,1.22,3.532,1.575,5.349c1.319,6.849,1.4,15.57,1.92,22.554
			c0.051,0.457,0.114,0.929,0.323,1.345c0.307,0.61,0.917,0.983,1.488,1.316c1.998,1.094,4.199,1.832,6.367,2.508
			c2.827,0.848,5.746,1.535,8.68,1.883c4.231,0.539,9.289-0.031,13.547-0.087"/>
	</g>
	<g id="POLYLINE_227_">
		
			<path fill="none" stroke="#E74C3C" stroke-width="2.75" stroke-linecap="round" stroke-linejoin="round" stroke-miterlimit="10" d="
			M834.663,379.531c-2.6-0.091-5.271,0.106-7.715,1.058c-2.044,0.796-3.869,2.094-5.61,3.408
			c-4.519,3.627-11.574,8.549-16.162,12.105"/>
	</g>
	<g id="POLYLINE_228_">
		
			<path fill="none" stroke="#E74C3C" stroke-width="2.75" stroke-linecap="round" stroke-linejoin="round" stroke-miterlimit="10" d="
			M815.215,388.678c-0.413-1.724-0.681-3.514-0.542-5.289c0.08-1.109,0.368-2.201,0.715-3.253c0.435-1.322,1.077-2.933,1.263-4.306
			c0.185-1.245,0.118-2.537,0.033-3.789"/>
	</g>
	<g id="POLYLINE_229_">
		
			<path fill="none" stroke="#E74C3C" stroke-width="2.75" stroke-linecap="round" stroke-linejoin="round" stroke-miterlimit="10" d="
			M874.305,395.609c5.534-7.093,10.063-14.269,10.046-23.579c0.022-4.554-0.848-9.104-2.35-13.395
			c-1.684-4.792-4.219-9.319-7.624-13.101c-1.838-2.051-3.921-3.938-6.181-5.515c-1.442-0.998-2.975-1.903-4.613-2.538
			c-0.794-0.305-1.63-0.533-2.473-0.654c-1.075-0.169-2.343-0.136-3.431-0.141"/>
	</g>
	<g id="POLYLINE_230_">
		
			<path fill="none" stroke="#E74C3C" stroke-width="2.75" stroke-linecap="round" stroke-linejoin="round" stroke-miterlimit="10" d="
			M850.113,334.586c-1.204-2.505-2.099-5.2-2.799-7.887c-0.192-0.749-0.386-1.552-0.517-2.313c-0.054-0.34-0.111-0.693-0.103-1.038
			c0.006-0.19,0.053-0.386,0.226-0.491c0.159-0.097,0.351-0.121,0.534-0.14c1.282-0.083,4.531,0.39,5.847,0.492
			c3.737,0.368,7.541,0.32,11.257-0.225c9.669-1.299,23.213-5.969,32.67-8.708c6.985-1.991,14.381-3.837,21.539-5.041
			c4.409-0.74,8.932-1.288,13.409-1.19c1.467,0.03,3.005,0.14,4.462,0.315c1.745,0.199,4.4,0.641,6.13,0.65
			c0.891,0.01,1.801-0.048,2.654-0.318c0.533-0.169,1.042-0.433,1.462-0.805c0.437-0.387,0.772-0.88,1.027-1.403
			c0.382-0.788,0.6-1.651,0.726-2.515c0.167-1.182,0.165-2.394,0.016-3.578c-0.179-1.377-0.562-2.783-1.443-3.885
			c-0.607-0.771-1.415-1.359-2.241-1.876c-0.498-0.325-2.854-1.648-3.404-1.971c-1.323-0.784-2.642-1.632-3.773-2.678
			c-0.752-0.697-1.426-1.498-1.885-2.419c-0.57-1.132-0.843-2.393-1.014-3.641c-0.289-2.044-0.298-4.457-0.942-6.429
			c-0.5-1.632-1.369-3.142-2.49-4.426c-2.023-2.295-4.652-3.988-7.289-5.496c-0.813-0.45-1.712-0.932-2.553-1.327
			c-0.409-0.188-0.833-0.371-1.273-0.474c-0.331-0.078-0.679-0.109-1.015-0.044c-0.316,0.059-0.611,0.205-0.865,0.4
			c-0.769,0.61-1.281,1.554-1.705,2.424c-1.105,2.4-1.727,5.016-1.993,7.639c-0.196,1.977-0.079,4.006,0.541,5.903
			c0.513,1.66,1.447,3.247,2.321,4.743c0.389,0.705,0.829,1.468,0.798,2.299c-0.017,0.421-0.2,0.819-0.456,1.148
			c-0.445,0.573-1.048,1.004-1.662,1.379c-1.19,0.708-2.502,1.215-3.827,1.608c-1.873,0.549-3.838,0.825-5.779,0.998
			c-1.527,0.236-30.362,1.251-32.778,1.369c-6.958,0.191-15.259,0.393-22.199,0.251c-4.235-0.025-11.525-0.624-15.778-0.851
			c-0.929-0.039-1.927-0.058-2.857-0.004c-0.713,0.041-1.437,0.145-2.129,0.329c-0.186,0.05-0.413,0.115-0.598,0.175
			c0,0-0.116,0.038-0.116,0.038s-0.229,0.078-0.229,0.078s-0.227,0.081-0.227,0.081l-1.373,0.513"/>
	</g>
	<g id="POLYLINE_231_">
		
			<path fill="none" stroke="#E74C3C" stroke-width="2.75" stroke-linecap="round" stroke-linejoin="round" stroke-miterlimit="10" d="
			M772.315,427.971c0.59,1.408,0.841,2.979,0.608,4.494c-0.257,1.698-1.221,3.371-2.796,4.149c-0.911,0.456-1.962,0.555-2.967,0.464
			c-1.703-0.169-3.377-0.832-4.688-1.939c-1.287-1.091-2.23-2.78-1.966-4.506c0.24-1.503,1.353-2.79,2.134-4.049
			c0.436-0.686,0.844-1.411,1.056-2.201c0.142-0.531,0.187-1.088,0.142-1.635c-0.09-1.04-0.49-2.099-1.278-2.809
			c-0.226-0.201-0.486-0.367-0.768-0.479c-0.355-0.141-0.738-0.202-1.117-0.229c-0.77-0.056-1.704,0.04-2.474-0.022
			c-0.413-0.034-0.833-0.113-1.198-0.315c-0.563-0.312-0.951-0.855-1.264-1.404c-0.681-1.224-1.206-2.83-1.922-4.035
			c-0.637-1.087-1.453-2.096-2.487-2.828c-0.643-0.451-1.388-0.79-2.178-0.85c-0.94-0.079-1.992,0.274-2.899,0.484
			c-0.899,0.216-1.847,0.321-2.719-0.056c-1.478-0.639-2.615-1.901-3.954-2.765c-0.61-0.4-1.304-0.728-2.048-0.724
			c-1.491,0.003-2.951,0.915-4.397,1.217c-1.011,0.226-2.068,0.194-3.094,0.118c-1.346-0.101-2.932-0.318-4.268-0.18
			c-1.902,0.178-3.709,0.906-5.417,1.727c-1.449,0.715-3.035,1.446-3.948,2.843c-0.422,0.642-0.616,1.406-0.662,2.167
			c-0.064,0.983,0.048,1.985,0.176,2.959c0.239,1.747,0.68,3.992,0.65,5.736c-0.012,0.821-0.132,1.645-0.326,2.442
			c-0.327,1.369-0.923,2.855-1.281,4.218c-0.208,0.782-0.349,1.592-0.407,2.399c-0.216,3.26,0.454,6.588,1.59,9.636
			c1.227,3.245,3.464,6.769,5.14,9.819c0.388,0.666,0.934,1.57,1.345,2.222c0.679,1.324,1.419,2.654,2.362,3.809
			c0.687,0.844,1.532,1.59,2.55,2.003c1.936,0.775,4.114,0.74,6.169,0.784c2.666-0.053,21.339,0.146,23.55-0.13
			c0.807-0.085,1.623-0.228,2.375-0.542c0.764-0.313,1.432-0.827,2-1.421c1.097-1.127,1.903-2.611,2.687-3.966
			c0.205-0.343,0.427-0.689,0.702-0.981c0.306-0.329,0.677-0.608,1.038-0.874c1.631-1.183,3.624-2.467,5.004-3.928
			c0.612-0.658,1.138-1.461,1.226-2.375c0.063-0.601-0.07-1.208-0.292-1.765c-0.335-0.859-1.02-1.906-1.486-2.709
			c-0.341-0.589-0.666-1.206-0.829-1.871c-0.244-0.996-0.256-2.121-0.512-3.115"/>
	</g>
	<g id="POLYLINE_232_">
		
			<path fill="none" stroke="#E74C3C" stroke-width="2.75" stroke-linecap="round" stroke-linejoin="round" stroke-miterlimit="10" d="
			M797.634,460.274c-1.175,0.136-2.431,0.328-3.613,0.282c-0.681-0.031-1.399-0.222-1.882-0.73c-0.561-0.595-0.828-1.4-1.069-2.166
			c-0.557-1.92-0.866-3.933-0.965-5.929c-0.113-2.164,0.258-4.331,0.861-6.404c0.812-2.807,1.941-5.686,3.03-8.398l6.35-14.764
			c0.529-1.301,1.07-2.639,1.295-4.031c0.199-1.283,0.161-2.613-0.141-3.876c-0.216-0.865-0.562-1.735-1.193-2.382
			c-0.656-0.669-1.553-1.03-2.438-1.289c-1.285-0.354-2.623-0.591-3.957-0.618c-1.217-0.022-2.445,0.145-3.623,0.449
			c-3.764,0.999-7.104,3.171-10.167,5.515"/>
	</g>
	<g id="POLYLINE_233_">
		
			<path fill="none" stroke="#E74C3C" stroke-width="2.75" stroke-linecap="round" stroke-linejoin="round" stroke-miterlimit="10" d="
			M779.648,425.186c0.626-1.77,0.917-3.661,0.918-5.536c-0.005-1.661-0.242-3.336-0.807-4.901c-0.612-1.678-1.581-3.285-3.009-4.388
			c-0.615-0.472-1.321-0.822-2.034-1.121c-0.928-0.378-2.327-0.901-3.229-1.313c-1.332-0.6-3.327-1.574-4.662-2.145
			c-1.32-0.552-2.685-1.11-4.12-1.262c-0.618-0.067-1.309-0.01-1.93-0.024c-0.167-0.007-0.337-0.022-0.499-0.065
			c-0.154-0.041-0.302-0.111-0.419-0.221c-0.248-0.236-0.368-0.571-0.482-0.886c-0.214-0.624-0.405-1.361-0.832-1.876
			c-0.286-0.36-0.651-0.656-1.053-0.878c-0.293-0.16-0.61-0.29-0.942-0.342c-0.44-0.075-0.873,0.089-1.26,0.285
			c-1.34,0.702-2.569,1.635-3.695,2.641c-0.393,0.356-1.006,0.973-1.421,1.284c-0.238,0.181-0.497,0.345-0.784,0.435
			c-0.41,0.13-0.851,0.085-1.271,0.033c-0.594-0.082-1.237-0.171-1.835-0.162c-0.898,0.008-1.806,0.138-2.686,0.31
			c-1.832,0.372-3.642,0.948-5.327,1.759"/>
	</g>
	<g id="POLYLINE_234_">
		
			<path fill="none" stroke="#E74C3C" stroke-width="2.75" stroke-linecap="round" stroke-linejoin="round" stroke-miterlimit="10" d="
			M764.776,453.89c2.369,2.035,5.049,3.762,8.003,4.809c2.502,0.898,5.162,1.349,7.803,1.587c3.836,0.332,7.728,0.135,11.524-0.495"
			/>
	</g>
	<g id="POLYLINE_235_">
		
			<path fill="none" stroke="#E74C3C" stroke-width="2.75" stroke-linecap="round" stroke-linejoin="round" stroke-miterlimit="10" d="
			M700.116,330.183c0.068,0.414,0.096,0.845,0,1.257c-0.076,0.335-0.243,0.646-0.465,0.908c-0.336,0.396-0.768,0.7-1.207,0.972
			c-1.01,0.612-2.123,1.094-3.219,1.53c-2.584,0.999-5.293,1.786-8.029,2.234c-1.337,0.199-2.717,0.358-4.062,0.147
			c-0.685-0.114-1.358-0.383-1.871-0.86c-0.669-0.614-1.048-1.471-1.392-2.295c-0.764-1.904-1.573-4.126-2.669-5.846
			c-0.525-0.827-1.148-1.609-1.912-2.228c-0.946-0.766-2.087-1.253-3.221-1.669c-1.557-0.58-3.45-1.121-4.842-2.035
			c-1.409-0.897-2.526-2.196-3.394-3.611c-1.03-1.689-1.738-3.567-2.201-5.487c-0.486-2.049-0.707-4.182-0.577-6.286
			c0.171-2.647,0.918-5.527,3.102-7.226c1.526-1.204,3.451-1.755,5.332-2.118c3.016-0.557,6.146-0.685,9.208-0.66
			c2.445,0.045,4.979,0.172,7.394,0.573c1.403,0.246,2.819,0.632,4.03,1.405c1.916,1.219,3.057,3.293,3.946,5.32
			c1.337,3.182,2.374,6.544,2.949,9.95c0.114,0.739,0.21,1.514,0.233,2.261c0.043,0.789-0.059,2.086-0.087,2.883
			c-0.022,0.678,0.004,1.368,0.115,2.038c0.121,0.746,0.344,1.491,0.581,2.208c0.503,1.513,1.335,3.491,1.833,5.006
			C699.861,329.083,700.024,329.635,700.116,330.183z"/>
	</g>
	<g id="POLYLINE_236_">
		
			<path fill="none" stroke="#E74C3C" stroke-width="2.75" stroke-linecap="round" stroke-linejoin="round" stroke-miterlimit="10" d="
			M684.594,337.328c1.971,3.677,4.111,7.725,5.472,11.658c1.733,4.969,3.557,10.732,5.967,15.385
			c2.373,4.656,5.31,9.118,8.376,13.346c2.019,2.837,6.606,8.514,8.807,11.307c4.479,5.786,7.792,12.447,10.297,19.301"/>
	</g>
	<g id="POLYLINE_237_">
		
			<path fill="none" stroke="#E74C3C" stroke-width="2.75" stroke-linecap="round" stroke-linejoin="round" stroke-miterlimit="10" d="
			M699.454,332.56c0.806,1.638,1.744,3.675,2.729,5.18c1.103,1.729,2.504,3.398,3.83,4.965c4.777,5.548,10.528,11.744,14.117,18.112
			c3.146,5.361,5.741,11.708,8.953,17.034c2.318,3.916,5.079,7.844,7.777,11.513c3.907,5.271,8.21,10.647,12.668,15.46"/>
	</g>
	<g id="POLYLINE_238_">
		
			<path fill="none" stroke="#E74C3C" stroke-width="2.75" stroke-linecap="round" stroke-linejoin="round" stroke-miterlimit="10" d="
			M776.331,410.065c1.559-1.999,3.211-4.03,5.116-5.704c1.303-1.153,2.745-2.166,4.293-2.963c2.512-1.29,5.295-2.073,8.028-2.744
			c1.764-0.435,8.389-1.808,10.153-2.241c2.286-0.534,6.22-1.719,8.513-2.394c3.445-0.995,7.012-1.857,10.611-1.949
			c3.783-0.11,7.559,0.62,11.154,1.761c5.078,1.635,9.922,4.115,14.234,7.254"/>
	</g>
	<g id="POLYLINE_239_">
		
			<path fill="none" stroke="#E74C3C" stroke-width="2.75" stroke-linecap="round" stroke-linejoin="round" stroke-miterlimit="10" d="
			M792.808,398.893c-0.536-2.396-1.102-4.9-0.999-7.365c0.053-2.274,0.522-4.755-0.199-6.963c-0.285-0.855-0.738-1.651-1.232-2.401
			c-1.154-1.701-2.579-3.508-3.563-5.313c-2.124-3.783-3.754-7.938-5.263-12"/>
	</g>
	<g id="POLYLINE_240_">
		
			<path fill="none" stroke="#E74C3C" stroke-width="2.75" stroke-linecap="round" stroke-linejoin="round" stroke-miterlimit="10" d="
			M686.021,340.017c-2.08,1.876-4.153,3.872-5.868,6.091c-1.013,1.323-1.921,2.764-2.456,4.35c-0.239,0.708-0.4,1.447-0.481,2.189
			c-0.153,1.211-0.044,3.18-0.035,4.414c0.017,4.601-0.395,9.372-0.995,13.936c-0.475,3.481-1.107,7.003-2.185,10.351
			c-0.542,1.691-1.226,3.365-2.025,4.951c-2.013,3.979-4.879,8.241-6.528,12.387c-3.817,9.37-5.397,19.566-6.56,29.566
			c-0.659,6.26-1.253,12.771-1.122,19.068c0.048,2.133,0.306,4.641,0.461,6.775c0.032,0.524,0.052,1.082,0.03,1.607
			c-0.031,0.711-0.148,1.436-0.47,2.078c-0.253,0.511-0.642,0.95-1.107,1.279c-0.647,0.459-1.41,0.73-2.175,0.923
			c-2.366,0.563-4.929,0.559-7.351,0.63l-39.336,0.03c0,0-1.963-0.008-1.963-0.008c-0.224-0.02-0.704-0.001-0.93-0.02
			c-0.963-0.038-1.961-0.084-2.907-0.279c-0.507-0.105-1.016-0.257-1.463-0.525c-0.392-0.232-0.731-0.559-0.954-0.958
			c-0.226-0.398-0.337-0.854-0.369-1.309c-0.029-0.419-0.002-0.844,0.095-1.253c0.187-0.805,0.661-1.518,1.259-2.077
			c0.549-0.517,1.199-0.927,1.86-1.285c1.207-0.646,2.523-1.149,3.82-1.586c3.913-1.297,8.393-2.094,12.18-3.746
			c2.208-0.945,4.353-2.201,6.395-3.463c2.874-1.875,6.942-4.208,9.548-6.394c1.224-1.013,2.384-2.156,3.195-3.533
			c1.503-2.561,1.835-5.609,2.132-8.511c0.571-7.261,1.031-20.129,1.626-27.361c0.932-11.424,1.92-23.905,4.073-35.148
			c0.958-4.931,2.363-9.851,4.385-14.456c0,0,2.436-5.596,2.436-5.596s0.39-0.94,0.39-0.94s0.379-0.95,0.379-0.95
			s0.185-0.48,0.185-0.48c0.56-1.467,1.071-3.017,1.478-4.535c0,0,1.162-4.452,1.162-4.452s0.163-0.585,0.163-0.585
			c0.146-0.519,0.376-1.276,0.543-1.794c0.404-1.247,0.896-2.558,1.435-3.756c1.318-2.954,3.104-5.705,5.193-8.171"/>
	</g>
	<g id="POLYLINE_241_">
		
			<path fill="none" stroke="#E74C3C" stroke-width="2.75" stroke-linecap="round" stroke-linejoin="round" stroke-miterlimit="10" d="
			M699.877,329.159c2.626-2.272,5.549-4.801,8.364-6.799c2.394-1.726,5.048-3.32,7.621-4.764c4.403-2.476,10.534-5.618,14.623-8.493
			c3.087-2.135,5.995-4.904,8.685-7.522"/>
	</g>
	<g id="POLYLINE_242_">
		
			<path fill="none" stroke="#E74C3C" stroke-width="2.75" stroke-linecap="round" stroke-linejoin="round" stroke-miterlimit="10" d="
			M669.327,297.602c5.506-6.914,11.927-13.962,18.063-20.344c3.883-3.967,8.157-8.369,12.422-11.888
			c1.675-1.342,3.413-2.78,5.449-3.527c0.928-0.334,1.932-0.473,2.915-0.375c1.64,0.166,3.182,0.853,4.608,1.647
			c3.581,2.063,6.697,4.893,9.668,7.74c5.888,5.794,11.191,12.389,14.672,19.923"/>
	</g>
	<g id="POLYLINE_243_">
		
			<path fill="none" stroke="#E74C3C" stroke-width="2.75" stroke-linecap="round" stroke-linejoin="round" stroke-miterlimit="10" d="
			M702.718,263.173c2.925-3.212,6.375-6.474,9.599-9.391c1.291-1.149,2.769-2.455,4.14-3.499c0.942-0.732,2.262-1.587,3.268-2.246"
			/>
	</g>
	<g id="POLYLINE_244_">
		
			<path fill="none" stroke="#E74C3C" stroke-width="2.75" stroke-linecap="round" stroke-linejoin="round" stroke-miterlimit="10" d="
			M825.161,459.191c0.503,0.4,1.136,0.596,1.749,0.759c2.444,0.575,5.036,0.602,7.536,0.669c1.013-0.004,17.652,0.04,18.169,0.009
			c0.44-0.014,0.896-0.035,1.33-0.11c0.51-0.083,1.018-0.273,1.393-0.639c0.635-0.622,0.993-1.508,1.188-2.363
			c0.233-1.069,0.195-2.283-0.475-3.194c-0.566-0.781-1.451-1.254-2.339-1.58c-1.638-0.573-3.553-0.794-5.202-1.332
			c-2.004-0.609-3.902-1.582-5.553-2.873"/>
	</g>
</g>
<g id="_x32_D_x24_AG-OUTLINE">
	<g id="POLYLINE_15_">
		
			<path fill="none" stroke="#E74C3C" stroke-width="3.25" stroke-linecap="round" stroke-linejoin="round" stroke-miterlimit="10" d="
			M147.207,338.978c-13.215,8.65-25.698,18.699-37.141,29.578c-1.991,1.721-3.863,3.714-5.602,5.691
			c-2.996,3.427-5.948,7.299-8.656,10.965c-4.221,5.764-12.307,17.383-16.816,22.648c-1.762,2.088-3.658,4.162-5.673,6.004
			c-3.254,3.012-7.079,5.384-11.012,7.403c-3.194,1.716-7.257,3.339-9.733,6.058c-1.09,1.203-1.817,2.74-1.998,4.357
			c-0.16,1.359,0.059,2.748,0.538,4.025c0.554,1.476,1.435,2.816,2.387,4.064c2.77,3.623,6.618,6.77,9.766,10.053
			c1.705,1.727,3.404,4.104,4.842,6.071c0.703,0.927,1.448,1.875,2.312,2.658c0.709,0.651,1.546,1.169,2.458,1.482
			c1.432,0.499,2.979,0.565,4.483,0.597c3.223-0.012,15.729,0.05,18.694-0.029c1.11-0.036,2.312-0.094,3.412-0.227
			c1.067-0.133,2.15-0.32,3.15-0.729c0.757-0.31,1.47-0.804,1.897-1.515c0.314-0.515,0.454-1.131,0.399-1.731
			c-0.052-0.606-0.288-1.188-0.632-1.687c-0.38-0.556-0.894-1.011-1.454-1.381c-1.701-1.127-4.332-1.92-6.234-2.666
			c-1.763-0.678-3.528-1.512-4.894-2.846c-2.012-1.932-2.887-4.719-3.284-7.414c-0.603-4.261-0.024-8.777,2.113-12.553
			c1.455-2.609,3.497-4.861,5.685-6.876c4.054-3.765,10.881-8.268,15.378-11.583c2.879-2.122,5.746-4.403,8.296-6.911
			c3.89-3.77,8.277-9.183,12.014-13.119c5.18-5.512,11.142-10.5,18.128-13.534c5.387-2.53,10.781-5.326,15.734-8.634
			c4.308-2.881,8.371-6.298,11.397-10.538c0.759-1.064,1.396-2.232,1.833-3.466c0.452-1.262,0.737-2.595,0.954-3.916
			c0.536-3.265,0.771-7.356,1.016-10.677c9.516-1.259,23.376-3.089,32.846-4.082c-1.517,2.923-2.803,6.016-3.88,9.127
			c-1.36,3.862-2.379,7.892-2.931,11.951c-0.826,5.935-0.983,12.093-0.942,18.08c0.082,8.925,0.745,18.873,1.483,27.781
			c0.647,6.092,1.734,15.703,2.154,21.706c0.253,3.515,0.41,7.172,0.227,10.692c-0.134,2.653-0.446,5.376-0.962,7.981
			c-0.366,2.016-1.215,4.867-1.782,6.858c-0.391,1.467-0.709,2.982-0.791,4.501c-0.049,1.032,0.03,2.09,0.386,3.066
			c0.287,0.795,0.777,1.519,1.424,2.064c1.126,0.953,2.596,1.359,4.016,1.642c1.651,0.314,3.379,0.444,5.056,0.531
			c8.596,0.25,39.274,0.128,47.657,0.1c1.552-0.037,3.261-0.086,4.805-0.258c0.885-0.104,1.799-0.243,2.645-0.533
			c3.537,0.746,7.301,0.757,10.906,0.821c0,0,42.604,0.01,42.604,0.01c0.629-0.01,1.488-0.013,2.116-0.043
			c0.954-0.045,1.93-0.114,2.863-0.323c0.912-0.203,1.826-0.57,2.486-1.253c0.777-0.799,1.169-1.889,1.371-2.967
			c0.411-2.332,0.087-4.742-0.51-7.014c-1.16-4.272-3.423-8.45-4.628-12.71c-2.033-6.942-3.029-14.229-3.596-21.427
			c-0.739-10.224-0.383-20.64,1.007-30.795c0.305-2.101,0.713-4.638,1.144-6.718c0.5-2.314,0.944-4.734,1.244-7.083
			c1.083-8.255,0.887-16.716,0.123-24.992c-0.365-3.983-1.441-12.009-1.39-15.9c0.014-0.97,0.069-1.957,0.288-2.904
			c0.146-0.628,0.381-1.244,0.75-1.776c0.645-0.922,1.606-1.586,2.489-2.263c2.384-1.717,5.583-3.955,7.873-5.764
			c3.054-2.442,6.756-5.439,10.005-7.571c6.306-4.217,13.185-7.662,20.131-10.692c0.524,0.436,1.071,0.894,1.73,1.102
			c0.295,0.092,0.608,0.118,0.915,0.085c0.799-0.095,1.537-0.47,2.233-0.853c2.943-1.691,6.451-4.925,9.129-7.042
			c1.031-0.813,2.116-1.623,3.265-2.259c1.198-0.662,2.536-1.162,3.921-1.136c1.314,0.015,2.573,0.555,3.608,1.342
			c1.189,0.902,2.181,2.053,3.093,3.227c3.84,4.989,7.896,13.353,11.013,18.886c1.509,2.669,3.107,5.411,5.043,7.793
			c1.084,1.313,2.302,2.578,3.802,3.413c0.672,0.37,1.408,0.639,2.171,0.732c0.934,0.118,1.887-0.01,2.79-0.257
			c1.484,6.002,3.089,12.473,5.108,18.306c0.854,2.397,1.798,4.827,3.143,6.994c0.907,1.48,2.1,2.777,3.438,3.878
			c1.228,1.034,2.62,2.044,3.938,2.966c5.015,3.392,11.373,7.662,16.042,11.438c13.151,10.471,25.457,23.053,37.872,34.366
			c3.66,3.272,13.605,11.701,16.874,15.056c1.473,1.504,2.891,3.126,4.084,4.862c1.268,1.82,2.246,3.852,2.997,5.936
			c0.534,1.447,1.051,2.952,1.39,4.458c0.273,1.229,0.441,2.504,0.313,3.762c-0.1,1.007-0.406,1.994-0.88,2.888
			c-0.764,1.444-1.904,2.659-3.114,3.74c-2.898,2.562-6.429,4.322-10.056,5.605c-3.03,1.106-6.684,2.101-9.498,3.679
			c-0.855,0.489-1.671,1.081-2.302,1.845c-0.985,1.164-1.511,2.79-1.06,4.284c0.278,0.955,0.948,1.738,1.839,2.176
			c1.095,0.543,2.342,0.691,3.546,0.797c0.708,0.061,1.584,0.086,2.3,0.105c0,0,1.786,0.021,1.786,0.021l43.803-0.006
			c0.945-0.015,1.967-0.033,2.907-0.138c1.664-0.164,3.276-0.785,4.531-1.907c0.69-0.613,1.26-1.375,1.602-2.236
			c0.562-1.422,0.562-3.003,0.338-4.497c-0.203-1.317-0.592-2.615-1.173-3.815c-0.69-1.44-1.633-2.76-2.634-3.999
			c-2.027-2.446-4.444-5.268-6.189-7.898c-2.534-3.865-5.782-9.638-8.315-13.485l-14.203-21.038
			c-6.145-9.396-12.516-20.639-18.371-30.225c-2.724-4.361-5.655-9.035-8.814-13.08c-1.309-1.659-2.719-3.282-4.338-4.648
			c-0.866-0.733-1.824-1.393-2.792-1.983c-3.11-1.95-8.234-4.196-11.581-5.801c-2.018-0.992-4.079-2.042-5.799-3.508
			c-1.159-0.983-2.134-2.184-2.874-3.509c-1.028-1.83-1.675-3.865-2.191-5.892c-1.652-6.882-2.249-14.329-2.955-21.366
			c0.24-0.216,0.424-0.489,0.572-0.774c0.236-0.457,0.392-0.955,0.51-1.454c0.636-2.804,0.126-5.717-0.434-8.491
			c-0.602-2.838-1.4-6.448-1.808-9.301c-0.333-2.245-0.543-4.721-0.699-6.99l-0.804-15.044c-0.348-4.93-0.845-9.985-2.108-14.77
			c-1.224-4.885-3.657-10.264-5.551-14.943c-0.531-1.337-1.005-2.756-1.379-4.145c-0.456-1.677-0.983-3.954-1.668-5.538
			c-1.279-2.975-3.411-5.516-5.756-7.714c0.006-1.377-0.261-3.339-0.404-4.724c-0.114-1.181-0.168-2.392,0.043-3.565
			c0.317-1.871,1.163-3.731,1.643-5.56c0.523-1.855,0.507-3.818,0.385-5.727c-0.166-2.499-0.476-5.405-0.231-7.889
			c0.253-2.802,1.266-6.166,1.948-8.91c0.782-3.087,1.267-6.24,1.139-9.431c-0.099-3.178-0.62-6.372-1.395-9.453
			c-0.821-3.226-1.936-6.419-3.353-9.432c-1.55-3.286-3.605-6.401-6.371-8.788c-3.885-3.429-9.179-5.057-13.897-6.989
			c-1.154-0.484-2.341-0.99-3.38-1.694c-0.685-0.463-1.295-1.038-1.843-1.657c-0.144-0.163-1.004-1.154-1.13-1.287
			c0.628-2.778,0.428-6.506,0.484-9.361c0.057-4.815,1.234-9.819,0.634-14.634c-0.266-2.294-0.878-4.552-1.724-6.698
			c-1.67-4.183-4.249-8.102-7.809-10.909c-2.689-2.112-5.956-3.438-9.322-3.982c-6.183-1.008-12.52,0.411-18.21,2.855
			c-4.227,1.833-8.274,4.218-11.782,7.215c-1.605,1.387-3.113,2.932-4.286,4.707c-1.47,2.211-2.436,4.784-2.643,7.439
			c-4.98-0.815-10.107-1.42-15.143-0.807l-3.205,0.424c-1.437,0.173-2.918,0.267-4.341-0.051c-2.109-0.455-4.414-1.652-6.46-2.321
			c-2.972-1.016-6.468-1.971-9.24-3.456c-2.158-1.134-4.814-2.657-7.112-3.408c-2.355-0.795-4.842-1.231-7.306-1.529
			c-7.108-0.792-14.454-0.638-21.588-0.269c-8.229,0.488-17.111,1.269-25.263,2.43c-0.348-0.422-0.77-0.794-1.272-1.02
			c-0.546-0.252-1.157-0.326-1.754-0.313c-0.531,0.011-1.075,0.085-1.599,0.17c-2.4,0.432-5.082,0.985-7.496,1.287
			c-1.158,0.145-2.377,0.268-3.544,0.27c-0.598-0.002-1.209-0.03-1.796-0.151c-0.422-0.088-0.837-0.234-1.211-0.45
			c-0.402-0.229-0.754-0.542-1.081-0.867c-0.839-0.854-1.744-1.731-2.362-2.764c0.652-0.545,0.986-1.426,0.904-2.267
			c-0.046-0.488-0.242-0.949-0.49-1.368c-0.378-0.651-1.191-1.619-1.655-2.227c-0.598-0.783-1.192-1.598-1.599-2.499
			c-0.287-0.635-0.45-1.329-0.456-2.026c-0.012-0.71,0.143-1.415,0.373-2.085c0.356-1.011,0.76-2.096,0.889-3.161
			c0.135-1.009,0.103-2.042,0.006-3.053c-0.168-1.668-0.54-3.337-1.065-4.929c-0.452-1.35-1.026-2.675-1.782-3.885
			c0.04,0,0.08-0.011,0.114-0.031c0.061-0.036,0.107-0.093,0.142-0.154c0.119-0.219,0.145-0.476,0.141-0.722
			c-0.02-0.573-0.222-1.124-0.456-1.641c-0.448-0.965-1.062-1.857-1.733-2.68c-2.011-2.471-4.722-4.283-7.615-5.568
			c-3.352-1.497-6.958-2.427-10.572-3.026c-6.955-1.121-16.792-1.518-22.191,3.745c-2.727,2.683-4.308,6.34-5.138,10.029
			c-0.37,1.703-0.587,3.46-0.5,5.205c0.067,1.565,0.449,3.129,0.876,4.632c-0.013,0.764,0.011,1.662,0.041,2.429l0.349,6.539
			c0.117,3.301,0.2,6.748-0.072,10.037c-0.094,0.983-0.204,1.993-0.492,2.94c-0.133,0.425-0.322,0.845-0.629,1.173
			c-0.209,0.226-0.469,0.402-0.743,0.541c-0.889,0.431-1.889,0.653-2.844,0.892l-6.506,1.451c-3.176,0.761-6.376,1.702-9.381,2.986
			c-3.188,1.366-6.255,3.132-9.042,5.195c-2.984,2.241-5.8,4.851-7.743,8.067c-0.799,1.336-1.375,2.806-1.788,4.304
			c-0.506,1.781-0.811,3.874-1.381,5.636c-0.636,2.042-1.994,3.756-3.423,5.309c-5.112,5.285-9.8,11.194-13.173,17.745
			c-2.548,4.952-4.358,10.326-5.107,15.853c-0.319,2.448-0.492,4.972-0.038,7.414c0.287,1.493,0.863,2.994,1.968,4.074
			c0.744,0.731,1.696,1.221,2.682,1.538c1.277,0.409,2.632,0.565,3.968,0.621c3.208,0.114,6.486-0.32,9.657-0.776
			c0.153,2.709,0.718,7.899,0.818,10.595c0.143,2.506,0.003,7.386-0.025,9.948c0.003,2.483,0.047,5.035,0.535,7.475
			c0.298,1.436,0.765,2.889,1.694,4.048c-3.812,5.197-6.677,11.073-8.754,17.163c-1.761,5.199-3.071,10.668-2.946,16.188
			c0.049,2.32,0.374,4.651,0.972,6.894c1.194,4.488,3.344,8.693,5.662,12.695c0.792,6.803,1.474,15.466,1.913,22.326l1.559,33.56
			c0.123,1.893,0.264,3.992,0.53,5.864c0.131,0.889,0.289,1.8,0.574,2.654c0.152,0.449,0.347,0.89,0.622,1.279
			C146.568,338.431,146.876,338.725,147.207,338.978z"/>
	</g>
	<g id="POLYLINE_16_">
		
			<path fill="none" stroke="#E74C3C" stroke-width="3.25" stroke-linecap="round" stroke-linejoin="round" stroke-miterlimit="10" d="
			M352.727,179.737c0.133-0.208,0.223-0.444,0.259-0.688c0.055-0.375-0.001-0.758-0.094-1.122c-0.314-1.144-0.947-2.183-1.575-3.18
			c-3.499-5.196-7.981-10.302-10.857-15.889c-0.617-1.205-1.15-2.481-1.519-3.785c-0.431-1.501-0.662-3.082-0.828-4.633
			c-0.276-2.887-0.565-7.512-1.126-10.31c0.835,0.463,1.76,1.003,2.648,1.346c0.59,0.236,1.222,0.397,1.847,0.51
			c1.25,0.244,2.674,0.363,3.76,1.076c0.529,0.347,0.955,0.831,1.3,1.357c0.426,0.651,0.748,1.378,1.031,2.102
			c1.579,4.42,3.218,10.592,4.795,15c0.944,2.709,2.017,5.536,3.243,8.129c1.371,2.931,3.318,6.217,4.87,9.067
			c0.825,1.546,1.63,3.163,2.094,4.859c0.505,1.753,0.652,3.705,0.81,5.518c-1.892-1.142-3.679-2.537-5.35-3.982
			C356.15,183.467,354.323,181.664,352.727,179.737z"/>
	</g>
	<g id="POLYLINE_17_">
		
			<path fill="none" stroke="#E74C3C" stroke-width="3.25" stroke-linecap="round" stroke-linejoin="round" stroke-miterlimit="10" d="
			M282.784,137.091c-1.779,0.094-3.8,0.218-5.561,0.115c-4.615-0.271-12.065-1.409-16.687-1.711
			c-3.394-0.279-8.039-0.171-11.43-0.481c-0.934-0.095-1.887-0.234-2.79-0.492c-0.821-0.233-1.616-0.576-2.361-0.992
			c-0.443-0.245-0.901-0.538-1.322-0.82c-1.954-1.38-5.323-3.706-7.184-5.166c2.366,0.162,4.786,0.139,7.114-0.349
			c1.51-0.317,3.206-1.054,4.685-1.495c3.445-1.044,8.244-1.173,11.805-1.709c0.973-0.149,1.973-0.311,2.898-0.656
			c0.542-0.205,1.064-0.495,1.462-0.922c12.966,3.367,26.499,4.941,39.886,4.991c-1.564,1.326-2.801,3.316-4.126,4.867
			c-0.42,0.484-0.869,0.964-1.401,1.325c-0.347,0.235-0.735,0.412-1.14,0.519c-0.618,0.165-1.269,0.178-1.905,0.163l-2.483-0.104
			c-2.163-0.04-4.387,0.053-6.452,0.753C284.612,135.336,283.46,136.012,282.784,137.091z"/>
	</g>
	<g id="POLYLINE_18_">
		
			<path fill="none" stroke="#E74C3C" stroke-width="3.25" stroke-linecap="round" stroke-linejoin="round" stroke-miterlimit="10" d="
			M322.362,268.65c-4.066,4.538-7.977,9.34-11.228,14.502c-0.974,1.546-1.942,3.243-2.786,4.866
			c-0.946,1.819-2.066,4.249-3.086,6.018c-0.576,1.008-1.215,2.008-1.915,2.935c-0.873,1.184-2.657,3.111-3.639,4.231
			c-1.572,1.809-3.042,3.763-4.061,5.942c-0.808,1.708-1.301,3.562-1.632,5.417c-0.432,2.398-0.639,5.093-0.816,7.531
			c-0.11,1.855-0.321,5.096-0.352,6.925c-0.165,6.937,0.424,14.21,1.097,21.117c1.111,10.984,2.952,23.69,4.431,34.639
			c0.391,2.973,3.429,20.383,3.973,23.658c0.891,5.647,1.478,11.46,1.421,17.178c-0.044,2.971-0.217,6.009-1.069,8.871
			c-0.475,1.58-1.231,3.09-2.297,4.356c-1.461,1.752-3.418,3.017-5.429,4.054c-4.419,2.224-9.239,3.682-14.061,4.735
			c-3.199,0.723-8.127,1.309-11.161,2.536c-2.981-1.061-7.099-1.394-10.224-1.952c-3.821-0.647-7.641-1.611-11.221-3.11
			c-4.082-1.689-7.835-4.226-10.849-7.463c-1.792-1.936-3.369-4.135-4.323-6.608c-0.969-2.486-1.228-5.191-1.237-7.841
			c-0.01-1.893,0.113-3.944,0.276-5.832c0.569-6.854,2.959-21.34,3.977-28.296c1.946-10.295,4.182-21.62,6.922-31.7
			c1.795-6.542,3.941-13.152,6.927-19.253c1.088-2.224,2.37-4.496,3.695-6.588c1.441-2.307,5.224-7.722,6.523-10.044
			c0.603-1.059,1.163-2.168,1.531-3.332c0.249-0.785,0.409-1.602,0.463-2.424c0.066-0.969-0.013-1.954-0.15-2.914
			c-0.407-3.023-1.578-5.907-3.161-8.5c-1.808-2.954-4.056-5.689-6.395-8.239c-2.221-2.382-4.629-4.686-7.301-6.557
			c-0.166-0.705-0.343-1.423-0.593-2.1c-0.247-0.686-0.572-1.375-0.907-2.024c-6.368-11.87-17.923-20.866-27.637-29.917
			c-1.686-1.593-3.396-3.281-4.816-5.117c-0.932-1.211-1.77-2.526-2.304-3.964c-0.564-1.493-0.69-3.114-0.662-4.698l0.098-2.873
			c0.012-0.763-0.01-1.543-0.18-2.29c-0.177-0.808-0.51-1.579-0.888-2.312l-0.658-1.238c0.765-0.605,1.214-1.516,1.507-2.428
			c0.507-1.629,0.628-3.364,0.716-5.058l0.164-4.997c0.123-2.627,0.411-5.309,0.942-7.886c0.455-2.394,1.6-5.903,2.316-8.267
			c0.478-1.614,0.927-3.321,1.231-4.976c0.779-4.015,0.73-9.705,0.89-13.821c0.066-1.553,0.187-3.172,0.45-4.703
			c0.262-1.677,0.913-4.024,1.347-5.685c3.463-0.772,6.925-1.792,10.193-3.183c1.935-0.847,3.92-1.861,5.227-3.575
			c0.86-1.115,1.324-2.485,1.52-3.868c0.258-1.785,0.194-3.621,0.053-5.415c4.746,1.637,9.742,2.743,14.723,3.35
			c4.408,0.534,8.928,0.681,13.352,0.265c4.338-0.399,8.652-1.304,12.824-2.549c4.258-1.278,8.442-2.931,12.381-4.996
			c0.787,0.458,1.687,0.692,2.585,0.799c1.242,0.145,2.509,0.073,3.749-0.063c2.784-0.299,5.925-1.084,8.728-0.771
			c1.22,0.133,2.551,0.706,3.698,1.13c0.136,0.048,0.346,0.122,0.482,0.166c1.782,3.623,4.317,6.862,7.218,9.655
			c2.963,2.829,6.787,5.25,9.273,8.549c3.126,4.021,5.621,9.422,8.922,13.312c0.951,1.112,1.992,2.185,3.199,3.021
			c0.641,0.433,1.347,0.824,2.123,0.936c0.734,1.743,1.605,3.878,2.501,5.524c0.683,1.28,1.472,2.534,2.321,3.711
			c5.19,7.026,15.141,16.151,21.002,22.686c-2.543,1.911-5.446,4.067-7.628,6.346c-4.961,5.183-10.526,13.016-15.145,18.552
			c-3.858,4.836-10.992,12.144-15.023,16.9c-0.624,0.764-1.27,1.578-1.791,2.416c-0.296,0.492-0.592,1.013-0.676,1.59
			c-0.025,0.191-0.018,0.391,0.046,0.574C322.133,268.383,322.235,268.531,322.362,268.65z"/>
	</g>
	<g id="POLYLINE_19_">
		
			<path fill="none" stroke="#E74C3C" stroke-width="3.25" stroke-linecap="round" stroke-linejoin="round" stroke-miterlimit="10" d="
			M794.15,131.946c0.906-2.906,2.417-5.771,3.754-8.502c1.211-2.387,2.593-4.749,4.451-6.694c1.17-1.228,2.539-2.286,4.072-3.021
			c1.669-0.803,3.507-1.22,5.339-1.437c2.381-0.273,4.808-0.212,7.187,0.056c2.054,0.245,4.136,0.627,6.102,1.279
			c0.65,0.219,1.301,0.485,1.899,0.822c0.592,0.308,1.308,0.883,1.86,1.268c1.157,0.826,2.764,1.643,3.994,2.365
			c1.403,0.822,2.799,1.729,4.001,2.829c0.834,0.762,1.588,1.631,2.16,2.608c0.652,1.105,1.092,2.33,1.373,3.579
			c0.602,2.719,0.511,5.556,0.15,8.303c-0.506,3.7-1.525,7.346-2.838,10.837c-1.45,3.797-3.247,7.507-5.555,10.86
			c-1.445,2.104-3.204,4.027-5.018,5.818c-0.445,0.85-0.973,1.698-1.529,2.48c0.298,0.308,0.643,0.634,0.731,1.071
			c0.073,0.392-0.088,0.781-0.257,1.127c1.329,1.241,2.749,2.587,3.892,3.987c0.931,1.13,1.76,2.369,2.456,3.656
			c1.521,2.831,2.592,5.919,3.469,9.004c1.171,4.172,1.975,8.538,2.499,12.84c1.329,11.175,0.807,22.604-0.79,33.725
			c-1.053,7.768-3.578,19.051-5.205,26.811c-0.327,1.604-0.661,3.466-0.869,5.091c-0.301,2.27-0.475,4.956-0.622,7.24
			c-0.508,8.108-0.934,18.339-2.433,26.297c0.818-0.298,1.742-0.68,2.543-0.885c0.692-0.185,1.414-0.288,2.129-0.329
			c0.932-0.055,1.923-0.035,2.857,0.004c4.272,0.24,11.595,0.817,15.777,0.851c6.933,0.142,15.237-0.056,22.2-0.251
			c2.553-0.133,31.173-1.117,32.778-1.369c1.941-0.173,3.906-0.448,5.779-0.998c1.325-0.393,2.636-0.9,3.827-1.608
			c0.625-0.381,1.24-0.821,1.686-1.41c0.249-0.329,0.423-0.725,0.434-1.142c0.02-0.824-0.414-1.575-0.799-2.275
			c-1.077-1.821-2.16-3.724-2.613-5.809c-0.351-1.505-0.4-3.072-0.269-4.607c0.125-1.48,0.393-2.959,0.774-4.395
			c0.451-1.645,1.018-3.293,1.936-4.74c0.354-0.534,0.768-1.066,1.344-1.372c0.577-0.309,1.241-0.255,1.846-0.058
			c0.425,0.131,0.849,0.332,1.25,0.523c1.117,0.545,2.28,1.18,3.349,1.816c2.463,1.496,4.915,3.18,6.704,5.472
			c0.965,1.241,1.689,2.672,2.106,4.188c0.593,2.064,0.565,4.546,0.924,6.655c0.182,1.097,0.47,2.196,0.992,3.183
			c0.455,0.868,1.103,1.626,1.819,2.29c1.131,1.045,2.451,1.895,3.773,2.678c0.569,0.323,2.901,1.652,3.404,1.971
			c0.826,0.517,1.634,1.105,2.241,1.876c0.881,1.101,1.264,2.508,1.443,3.885c0.149,1.184,0.151,2.396-0.016,3.578
			c-0.126,0.864-0.344,1.727-0.726,2.515c-0.255,0.522-0.589,1.016-1.027,1.403c-0.419,0.373-0.929,0.636-1.462,0.805
			c-0.854,0.27-1.764,0.328-2.654,0.318c-1.72-0.006-4.401-0.448-6.13-0.65c-1.457-0.176-2.996-0.285-4.462-0.315
			c-4.477-0.098-9,0.45-13.409,1.19c-7.156,1.203-14.559,3.051-21.539,5.041c-9.526,2.755-22.952,7.399-32.67,8.708
			c-3.716,0.545-7.521,0.593-11.257,0.225c-1.339-0.104-4.55-0.573-5.847-0.492c-0.182,0.019-0.374,0.043-0.534,0.14
			c-0.173,0.105-0.22,0.301-0.226,0.491c-0.008,0.345,0.049,0.699,0.103,1.038c0.13,0.761,0.324,1.565,0.517,2.313
			c0.701,2.687,1.596,5.381,2.799,7.887c1.669,0.32,3.477,0.672,5.105,1.149c0.839,0.249,1.684,0.543,2.46,0.95
			c1.095-0.002,2.359-0.021,3.431,0.141c0.843,0.121,1.678,0.348,2.473,0.654c1.639,0.635,3.172,1.54,4.613,2.538
			c2.26,1.577,4.342,3.464,6.181,5.515c3.405,3.782,5.94,8.31,7.624,13.101c1.503,4.291,2.372,8.841,2.351,13.395
			c0.017,9.31-4.513,16.488-10.046,23.579c2.772,3.618,5.577,7.411,7.851,11.362c1.583,2.795,2.958,5.909,2.783,9.189
			c-0.052,1.187-0.335,2.365-0.835,3.442c-0.873,1.889-2.273,3.484-3.724,4.952c-2.68,2.715-6.775,5.982-9.73,8.454
			c-3.008,2.465-6.407,5.298-9.694,7.357c-1.566,0.994-3.235,1.909-4.925,2.674c-4.081,1.894-9.135,3.305-13.073,5.497
			c1.737,1.36,3.749,2.361,5.868,2.967c1.063,0.316,2.517,0.603,3.603,0.858c0.621,0.15,1.245,0.337,1.827,0.6
			c0.818,0.366,1.603,0.917,2.024,1.73c0.496,0.952,0.443,2.093,0.177,3.106c-0.209,0.753-0.54,1.504-1.099,2.062
			c-0.362,0.361-0.851,0.559-1.348,0.646c-0.579,0.106-1.194,0.117-1.781,0.129c-5.187-0.044-16.222,0.134-21.249-0.143
			c-1.181-0.079-2.399-0.189-3.559-0.425c-0.772-0.17-1.629-0.379-2.26-0.876c-7.609,1.845-16.737,1.391-24.546,1.445
			c-0.997-0.022-2.023-0.059-2.98-0.362c-1.156,0.136-2.396,0.319-3.559,0.284c-0.715-0.025-1.474-0.221-1.969-0.768
			c-3.796,0.63-7.688,0.827-11.524,0.495c-2.641-0.238-5.301-0.689-7.803-1.587c-2.953-1.048-5.634-2.774-8.003-4.809
			c-0.559,0.765-1.087,1.853-1.607,2.646c-0.839,1.305-1.842,2.615-3.269,3.309c-1.238,0.591-2.642,0.688-3.993,0.753
			c-0.553,0.026-1.735,0.038-2.306,0.043c0,0-19.89-0.006-19.89-0.006c-1.036-0.016-2.267-0.031-3.296-0.135
			c-0.917-0.091-1.842-0.257-2.706-0.582c-1.088-0.401-1.993-1.178-2.717-2.07c-0.942-1.156-1.683-2.486-2.362-3.809
			c-0.412-0.652-0.957-1.556-1.345-2.222c-1.682-3.066-3.909-6.567-5.14-9.819c-1.136-3.047-1.806-6.377-1.59-9.636
			c0.059-0.807,0.199-1.617,0.408-2.399c0.358-1.363,0.953-2.848,1.281-4.218c0.193-0.798,0.314-1.621,0.326-2.442
			c0.032-1.739-0.411-4.006-0.65-5.736c-0.129-0.975-0.241-1.976-0.176-2.959c0.047-0.775,0.249-1.553,0.685-2.203
			c0.69-1.047,1.797-1.72,2.886-2.29c1.348-0.687,2.747-1.351,4.198-1.789c-2.505-6.854-5.819-13.514-10.297-19.301
			c-6.133-7.665-12.749-15.884-17.182-24.652c-2.406-4.641-4.241-10.432-5.967-15.385c-1.078-3.058-2.528-6.103-4.045-8.97
			c-2.08,1.876-4.153,3.872-5.868,6.091c-1.013,1.323-1.921,2.764-2.456,4.35c-0.239,0.708-0.4,1.447-0.481,2.189
			c-0.153,1.211-0.044,3.18-0.035,4.414c0.017,4.601-0.395,9.372-0.995,13.936c-0.475,3.481-1.107,7.003-2.185,10.351
			c-0.542,1.691-1.226,3.365-2.025,4.951c-2.013,3.979-4.879,8.241-6.528,12.387c-3.817,9.37-5.397,19.566-6.56,29.566
			c-0.659,6.26-1.253,12.771-1.122,19.068c0.048,2.133,0.306,4.641,0.461,6.775c0.032,0.524,0.052,1.082,0.03,1.607
			c-0.031,0.711-0.148,1.436-0.47,2.078c-0.253,0.511-0.642,0.95-1.107,1.279c-0.647,0.459-1.41,0.73-2.175,0.923
			c-2.366,0.563-4.929,0.559-7.351,0.63l-39.336,0.03c0,0-1.963-0.008-1.963-0.008c-0.224-0.02-0.704-0.001-0.93-0.02
			c-0.963-0.038-1.961-0.084-2.907-0.279c-0.507-0.105-1.016-0.257-1.463-0.525c-0.392-0.232-0.731-0.559-0.954-0.958
			c-0.226-0.398-0.337-0.854-0.369-1.309c-0.029-0.419-0.002-0.844,0.095-1.253c0.187-0.805,0.661-1.518,1.259-2.077
			c0.549-0.517,1.199-0.927,1.86-1.285c1.207-0.646,2.523-1.149,3.82-1.586c3.913-1.297,8.393-2.094,12.18-3.746
			c2.208-0.945,4.353-2.201,6.395-3.463c2.874-1.875,6.942-4.208,9.548-6.394c1.224-1.013,2.384-2.156,3.195-3.533
			c1.503-2.561,1.835-5.609,2.132-8.511c0.571-7.261,1.031-20.129,1.626-27.361c0.932-11.424,1.92-23.905,4.073-35.148
			c0.958-4.931,2.363-9.851,4.385-14.456c0,0,2.436-5.596,2.436-5.596s0.39-0.94,0.39-0.94s0.379-0.95,0.379-0.95
			s0.185-0.48,0.185-0.48c0.56-1.467,1.071-3.017,1.478-4.535c0,0,1.162-4.452,1.162-4.452s0.163-0.585,0.163-0.585
			c0.146-0.519,0.376-1.276,0.543-1.794c0.404-1.247,0.896-2.558,1.435-3.756c1.318-2.954,3.104-5.705,5.193-8.171
			c-0.849-1.705-1.425-3.554-1.774-5.424c-0.319-1.743-0.449-3.541-0.321-5.309c0.14-1.816,0.533-3.667,1.486-5.24
			c0.596-0.982,1.449-1.798,2.435-2.383c1.324-0.79,2.836-1.215,4.338-1.514c7.219-9.015,15.488-17.888,23.687-26.027
			c3.05-2.938,6.213-5.995,9.704-8.401c2.925-3.212,6.375-6.474,9.599-9.391c1.291-1.149,2.769-2.455,4.14-3.499
			c0.942-0.732,2.262-1.587,3.268-2.246c-4.265-3.427-9.41-5.884-14.879-6.503c-4.135-0.502-8.779,0.162-12.92,0.536
			c-1.578,0.126-3.224,0.257-4.8,0.09c-0.931-0.103-1.874-0.337-2.665-0.857c-1.946-1.271-1.826-3.732-1.035-5.661
			c1.165-2.895,3.826-4.811,6.473-6.267c3.308-1.783,6.904-3.145,10.435-4.417c3.809-1.321,7.762-2.466,11.775-2.937
			c1.409-0.163,2.873-0.219,4.291-0.2c3.348,0.047,7.021,0.467,10.35-0.008c1.518-0.201,3.51-0.553,5.025-0.575
			c0.917-0.015,1.851,0.068,2.724,0.364c0.606-6.627,1.521-13.416,3.127-19.878c0.756-3.047,1.964-6.386,3.065-9.338
			c-0.054-0.383-0.17-1.154-0.231-1.536c-1.367,0.428-2.787,0.94-4.238,0.901c-0.638-0.018-1.273-0.168-1.854-0.433
			c-0.999-0.454-1.86-1.171-2.622-1.951c-1.162-1.202-2.13-2.601-2.981-4.036c-1.493-2.553-2.696-5.319-3.364-8.206
			c-0.278-1.235-0.454-2.51-0.416-3.779c0.025-0.872,0.177-1.745,0.392-2.589c0.239-0.979,0.651-2.092,0.823-3.085
			c0.051-0.316,0.077-0.642,0.04-0.962c-0.117-1.048-0.89-1.999-1.42-2.876c-0.718-1.141-1.336-2.367-1.846-3.615
			c-0.383-0.948-0.718-1.94-0.918-2.944c-0.204-1.068-0.305-2.257,0.256-3.236c-3.277-2.898-6.434-6.038-8.967-9.616
			c-2.471-3.455-4.597-7.341-6.548-11.115c-1.777-3.553-3.712-7.413-5.227-11.079c-0.921-2.348-1.758-4.891-1.37-7.441
			c0.198-1.256,0.709-2.464,1.471-3.482c0.75-1.006,1.746-1.828,2.872-2.381c1.121-0.551,2.358-0.84,3.591-1.011
			c2.484-0.363,5.963-0.216,8.494-0.248c2.87-0.028,6.808-0.274,9.656-0.107c2.152,0.105,4.329,0.395,6.424,0.901
			c5.968,1.444,12.696,4.511,18.575,6.283c1.678,0.513,3.464,0.963,5.19,1.283c2.431,0.466,6.848,0.974,9.312,1.298
			c2.439,0.344,4.919,0.817,7.267,1.565c3.481,1.115,6.828,2.718,9.97,4.577c1.817,1.088,3.621,2.292,5.245,3.654
			c1.265,1.048,2.376,2.29,3.247,3.685l0.908,1.45c0.271-0.208,0.587-0.37,0.927-0.421
			C793.621,131.793,793.903,131.828,794.15,131.946z"/>
	</g>
	<g id="POLYLINE_20_">
		
			<path fill="none" stroke="#E74C3C" stroke-width="3.25" stroke-linecap="round" stroke-linejoin="round" stroke-miterlimit="10" d="
			M803.152,246.298c0.329,0.51,0.777,1.118,1.037,1.665c0.176,0.361,0.308,0.746,0.382,1.141c0.086,0.458,0.095,0.932,0.075,1.397
			c-0.071,1.606-0.644,4.319-0.901,5.931c-0.442,2.599-0.542,5.27-0.355,7.898c0.106,1.633,0.317,3.427,0.544,5.048
			c0.599,3.877,2.43,16.053,3.167,19.844c0.874-5.804,2.84-12.158,3.124-18.037c0.531-9.565-0.698-20.749-0.065-30.307
			c0.216-3.924,0.907-11.045,0.756-14.884c-0.043-1.055-0.134-2.129-0.371-3.159c-0.204-0.887-0.538-1.747-1.003-2.53
			c-0.548-0.938-1.301-1.782-2.028-2.585c0.126,1.085,0.258,2.247,0.197,3.334c-0.118,2.195-0.618,4.392-1.187,6.511
			c-0.462,1.64-1.004,3.293-1.752,4.826c-0.472,0.957-1.08,1.887-1.963,2.512c0.176,1.182,0.304,3.303,0.398,4.517l0.248,2.679
			C803.558,243.495,803.632,244.959,803.152,246.298z"/>
	</g>
	<g id="POLYLINE_21_">
		
			<path fill="none" stroke="#E74C3C" stroke-width="3.25" stroke-linecap="round" stroke-linejoin="round" stroke-miterlimit="10" d="
			M699.454,332.56c0.806,1.638,1.744,3.675,2.729,5.18c1.103,1.729,2.504,3.398,3.83,4.965c4.777,5.548,10.528,11.744,14.117,18.112
			c3.146,5.361,5.741,11.708,8.953,17.034c2.318,3.916,5.079,7.844,7.777,11.513c3.907,5.271,8.21,10.647,12.668,15.46
			c0.455-0.189,0.832-0.526,1.194-0.853c1.287-1.249,2.708-2.425,4.275-3.305c0.433-0.231,0.899-0.484,1.405-0.453
			c0.321,0.02,0.63,0.131,0.919,0.269c0.444,0.216,0.848,0.521,1.168,0.899c0.465,0.526,0.666,1.292,0.887,1.944
			c0.126,0.346,0.259,0.728,0.567,0.955c0.158,0.113,0.35,0.166,0.54,0.192c0.628,0.07,1.335-0.019,1.965,0.029
			c0.657,0.035,1.309,0.182,1.937,0.369c2.68,0.823,5.371,2.347,7.955,3.424c1.23,0.52,2.872,1.035,3.991,1.771
			c1.552-1.998,3.215-4.031,5.116-5.704c1.303-1.153,2.745-2.166,4.293-2.963c2.221-1.141,4.656-1.882,7.067-2.505
			c-0.536-2.396-1.102-4.9-0.999-7.365c0.053-2.274,0.522-4.755-0.199-6.963c-0.285-0.855-0.738-1.651-1.232-2.401
			c-1.154-1.701-2.579-3.508-3.563-5.313c-2.124-3.783-3.754-7.938-5.263-12c-1.821-0.53-13.098-3.698-14.589-4.244
			c-1.596-0.539-3.201-1.176-4.699-1.947c-2.896-1.481-5.483-3.545-7.761-5.856c-2.916-2.99-5.432-6.456-7.038-10.327
			c-0.779-1.879-1.356-3.876-1.8-5.859c-0.535-2.214-2.156-12.232-2.59-14.63l-3.903-20.406c-2.696,2.624-5.595,5.385-8.685,7.522
			c-4.07,2.863-10.24,6.028-14.623,8.493c-2.573,1.445-5.227,3.039-7.621,4.764c-2.81,1.994-5.75,4.535-8.364,6.799
			c0.205,0.754,0.419,1.563,0.225,2.34C699.997,331.908,699.754,332.268,699.454,332.56z"/>
	</g>
</g>
</svg>
